<?xml version="1.0" encoding="utf-8" standalone="no"?>
<!DOCTYPE svg PUBLIC "-//W3C//DTD SVG 1.1//EN"
  "http://www.w3.org/Graphics/SVG/1.1/DTD/svg11.dtd">
<svg xmlns:xlink="http://www.w3.org/1999/xlink" width="720pt" height="288pt" viewBox="0 0 720 288" xmlns="http://www.w3.org/2000/svg" version="1.1">
 <metadata>
  <rdf:RDF xmlns:dc="http://purl.org/dc/elements/1.1/" xmlns:cc="http://creativecommons.org/ns#" xmlns:rdf="http://www.w3.org/1999/02/22-rdf-syntax-ns#">
   <cc:Work>
    <dc:type rdf:resource="http://purl.org/dc/dcmitype/StillImage"/>
    <dc:date>2023-06-27T22:21:11.308851</dc:date>
    <dc:format>image/svg+xml</dc:format>
    <dc:creator>
     <cc:Agent>
      <dc:title>Matplotlib v3.5.2, https://matplotlib.org/</dc:title>
     </cc:Agent>
    </dc:creator>
   </cc:Work>
  </rdf:RDF>
 </metadata>
 <defs>
  <style type="text/css">*{stroke-linejoin: round; stroke-linecap: butt}</style>
 </defs>
 <g id="figure_1">
  <g id="patch_1">
   <path d="M 0 288 
L 720 288 
L 720 0 
L 0 0 
z
" style="fill: #ffffff"/>
  </g>
  <g id="axes_1">
   <g id="patch_2">
    <path d="M 28.38 244.096 
L 708.465363 244.096 
L 708.465363 10.8 
L 28.38 10.8 
z
" style="fill: #ffffff"/>
   </g>
   <g id="PolyCollection_1">
    <path d="M -32.471835 244.096 
L -32.471835 236.982067 
L -30.259426 236.969433 
L -28.047017 236.944091 
L -25.834608 236.905883 
L -23.622199 236.854574 
L -21.409789 236.789855 
L -19.19738 236.71134 
L -16.984971 236.618572 
L -14.772562 236.511026 
L -12.560153 236.38811 
L -10.347744 236.24917 
L -8.135335 236.093494 
L -5.922926 235.920317 
L -3.710517 235.728822 
L -1.498108 235.518145 
L 0.714301 235.287378 
L 2.926711 235.035567 
L 5.13912 234.761716 
L 7.351529 234.464777 
L 9.563938 234.143652 
L 11.776347 233.797175 
L 13.988756 233.424106 
L 16.201165 233.02311 
L 18.413574 232.592741 
L 20.625983 232.131416 
L 22.838392 231.63739 
L 25.050801 231.108733 
L 27.26321 230.5433 
L 29.47562 229.938705 
L 31.688029 229.292304 
L 33.900438 228.60117 
L 36.112847 227.86209 
L 38.325256 227.071563 
L 40.537665 226.225808 
L 42.750074 225.320794 
L 44.962483 224.352281 
L 47.174892 223.315879 
L 49.387301 222.207126 
L 51.59971 221.021588 
L 53.81212 219.754966 
L 56.024529 218.403218 
L 58.236938 216.962681 
L 60.449347 215.430175 
L 62.661756 213.803087 
L 64.874165 212.0794 
L 67.086574 210.257663 
L 69.298983 208.336872 
L 71.511392 206.316251 
L 73.723801 204.194926 
L 75.93621 201.9715 
L 78.148619 199.64353 
L 80.361029 197.206968 
L 82.573438 194.655586 
L 84.785847 191.980493 
L 86.998256 189.169809 
L 89.210665 186.208607 
L 91.423074 183.079233 
L 93.635483 179.762086 
L 95.847892 176.236937 
L 98.060301 172.484782 
L 100.27271 168.490156 
L 102.485119 164.243714 
L 104.697529 159.744739 
L 106.909938 155.003114 
L 109.122347 150.040231 
L 111.334756 144.888353 
L 113.547165 139.588198 
L 115.759574 134.184969 
L 117.971983 128.723587 
L 120.184392 123.244396 
L 122.396801 117.780747 
L 124.60921 112.359499 
L 126.821619 107.004475 
L 129.034028 101.741623 
L 131.246438 96.60352 
L 133.458847 91.630523 
L 135.671256 86.866755 
L 137.883665 82.350994 
L 140.096074 78.104885 
L 142.308483 74.122666 
L 144.520892 70.366839 
L 146.733301 66.772753 
L 148.94571 63.262026 
L 151.158119 59.761458 
L 153.370528 56.221766 
L 155.582938 52.630369 
L 157.795347 49.014727 
L 160.007756 45.436498 
L 162.220165 41.980148 
L 164.432574 38.740832 
L 166.644983 35.814799 
L 168.857392 33.2923 
L 171.069801 31.250374 
L 173.28221 29.743033 
L 175.494619 28.789198 
L 177.707028 28.362625 
L 179.919437 28.389781 
L 182.131847 28.759707 
L 184.344256 29.344869 
L 186.556665 30.026848 
L 188.769074 30.718592 
L 190.981483 31.37704 
L 193.193892 32.004616 
L 195.406301 32.64244 
L 197.61871 33.359598 
L 199.831119 34.241636 
L 202.043528 35.379197 
L 204.255937 36.856418 
L 206.468347 38.738967 
L 208.680756 41.06275 
L 210.893165 43.825317 
L 213.105574 46.98231 
L 215.317983 50.450774 
L 217.530392 54.119869 
L 219.742801 57.867689 
L 221.95521 61.580822 
L 224.167619 65.172014 
L 226.380028 68.591531 
L 228.592437 71.829724 
L 230.804846 74.91102 
L 233.017256 77.881995 
L 235.229665 80.797249 
L 237.442074 83.706609 
L 239.654483 86.64599 
L 241.866892 89.632933 
L 244.079301 92.666611 
L 246.29171 95.731241 
L 248.504119 98.801311 
L 250.716528 101.846979 
L 252.928937 104.838362 
L 255.141346 107.748158 
L 257.353756 110.552862 
L 259.566165 113.233359 
L 261.778574 115.775695 
L 263.990983 118.17239 
L 266.203392 120.424018 
L 268.415801 122.540275 
L 270.62821 124.539741 
L 272.840619 126.447869 
L 275.053028 128.293439 
L 277.265437 130.104276 
L 279.477846 131.903284 
L 281.690255 133.70576 
L 283.902665 135.518453 
L 286.115074 137.34029 
L 288.327483 139.164252 
L 290.539892 140.979664 
L 292.752301 142.77427 
L 294.96471 144.535707 
L 297.177119 146.252277 
L 299.389528 147.913181 
L 301.601937 149.508457 
L 303.814346 151.028868 
L 306.026755 152.46589 
L 308.239165 153.811827 
L 310.451574 155.060049 
L 312.663983 156.205273 
L 314.876392 157.243835 
L 317.088801 158.173955 
L 319.30121 158.995967 
L 321.513619 159.712539 
L 323.726028 160.328875 
L 325.938437 160.852868 
L 328.150846 161.295157 
L 330.363255 161.669023 
L 332.575664 161.990081 
L 334.788074 162.275708 
L 337.000483 162.54422 
L 339.212892 162.813819 
L 341.425301 163.101392 
L 343.63771 163.421271 
L 345.850119 163.784088 
L 348.062528 164.195866 
L 350.274937 164.657484 
L 352.487346 165.164589 
L 354.699755 165.707991 
L 356.912164 166.274495 
L 359.124574 166.848069 
L 361.336983 167.411203 
L 363.549392 167.946284 
L 365.761801 168.436866 
L 367.97421 168.868723 
L 370.186619 169.230645 
L 372.399028 169.514987 
L 374.611437 169.718021 
L 376.823846 169.840114 
L 379.036255 169.885783 
L 381.248664 169.863596 
L 383.461073 169.7859 
L 385.673483 169.668308 
L 387.885892 169.528923 
L 390.098301 169.387293 
L 392.31071 169.263155 
L 394.523119 169.175087 
L 396.735528 169.139212 
L 398.947937 169.168132 
L 401.160346 169.270236 
L 403.372755 169.449468 
L 405.585164 169.705597 
L 407.797573 170.034922 
L 410.009983 170.431306 
L 412.222392 170.887373 
L 414.434801 171.395689 
L 416.64721 171.949754 
L 418.859619 172.544674 
L 421.072028 173.177439 
L 423.284437 173.846799 
L 425.496846 174.552783 
L 427.709255 175.295979 
L 429.921664 176.07672 
L 432.134073 176.89432 
L 434.346482 177.74651 
L 436.558892 178.629156 
L 438.771301 179.53632 
L 440.98371 180.460619 
L 443.196119 181.393834 
L 445.408528 182.32764 
L 447.620937 183.254339 
L 449.833346 184.167475 
L 452.045755 185.062254 
L 454.258164 185.935706 
L 456.470573 186.786608 
L 458.682982 187.615198 
L 460.895392 188.422748 
L 463.107801 189.21108 
L 465.32021 189.982106 
L 467.532619 190.737439 
L 469.745028 191.478135 
L 471.957437 192.204569 
L 474.169846 192.916435 
L 476.382255 193.612856 
L 478.594664 194.292563 
L 480.807073 194.954102 
L 483.019482 195.596049 
L 485.231891 196.217196 
L 487.444301 196.816699 
L 489.65671 197.394165 
L 491.869119 197.949707 
L 494.081528 198.483937 
L 496.293937 198.997934 
L 498.506346 199.493186 
L 500.718755 199.971509 
L 502.931164 200.434968 
L 505.143573 200.8858 
L 507.355982 201.326336 
L 509.568391 201.758949 
L 511.780801 202.186004 
L 513.99321 202.609835 
L 516.205619 203.032727 
L 518.418028 203.456918 
L 520.630437 203.884599 
L 522.842846 204.317922 
L 525.055255 204.759 
L 527.267664 205.209895 
L 529.480073 205.672592 
L 531.692482 206.148953 
L 533.904891 206.64066 
L 536.1173 207.149137 
L 538.32971 207.675466 
L 540.542119 208.220307 
L 542.754528 208.783822 
L 544.966937 209.365618 
L 547.179346 209.964716 
L 549.391755 210.579553 
L 551.604164 211.208014 
L 553.816573 211.847499 
L 556.028982 212.49502 
L 558.241391 213.147323 
L 560.4538 213.801019 
L 562.66621 214.452725 
L 564.878619 215.099196 
L 567.091028 215.737448 
L 569.303437 216.364856 
L 571.515846 216.979226 
L 573.728255 217.578841 
L 575.940664 218.162479 
L 578.153073 218.729398 
L 580.365482 219.27931 
L 582.577891 219.812324 
L 584.7903 220.328888 
L 587.002709 220.829716 
L 589.215119 221.315726 
L 591.427528 221.787962 
L 593.639937 222.247544 
L 595.852346 222.69561 
L 598.064755 223.133275 
L 600.277164 223.561599 
L 602.489573 223.981565 
L 604.701982 224.394062 
L 606.914391 224.799881 
L 609.1268 225.199707 
L 611.339209 225.594126 
L 613.551619 225.983626 
L 615.764028 226.368606 
L 617.976437 226.749376 
L 620.188846 227.126174 
L 622.401255 227.499161 
L 624.613664 227.868439 
L 626.826073 228.234046 
L 629.038482 228.595972 
L 631.250891 228.954155 
L 633.4633 229.308494 
L 635.675709 229.65885 
L 637.888118 230.005052 
L 640.100528 230.346903 
L 642.312937 230.684188 
L 644.525346 231.016676 
L 646.737755 231.344128 
L 648.950164 231.6663 
L 651.162573 231.982956 
L 653.374982 232.293863 
L 655.587391 232.598805 
L 657.7998 232.897583 
L 660.012209 233.190018 
L 662.224618 233.475961 
L 664.437028 233.755287 
L 666.649437 234.027903 
L 668.861846 234.293746 
L 671.074255 234.552788 
L 673.286664 234.805029 
L 675.499073 235.050501 
L 677.711482 235.289266 
L 679.923891 235.521411 
L 682.1363 235.747049 
L 684.348709 235.966314 
L 686.561118 236.179358 
L 688.773527 236.386348 
L 690.985937 236.587463 
L 693.198346 236.782892 
L 695.410755 236.972825 
L 697.623164 237.15746 
L 699.835573 237.336989 
L 702.047982 237.511606 
L 704.260391 237.681499 
L 706.4728 237.846847 
L 708.685209 238.007825 
L 710.897618 238.164598 
L 713.110027 238.317322 
L 715.322437 238.466143 
L 717.534846 238.611197 
L 719.747255 238.752612 
L 721.959664 238.890505 
L 724.172073 239.024986 
L 726.384482 239.156155 
L 728.596891 239.284106 
L 730.8093 239.408926 
L 733.021709 239.530694 
L 735.234118 239.649487 
L 737.446527 239.765375 
L 739.658936 239.878423 
L 741.871346 239.988694 
L 744.083755 240.096248 
L 746.296164 240.201142 
L 748.508573 240.303429 
L 750.720982 240.403162 
L 752.933391 240.500393 
L 755.1458 240.59517 
L 757.358209 240.687542 
L 759.570618 240.777556 
L 761.783027 240.865257 
L 763.995436 240.950691 
L 766.207846 241.033901 
L 768.420255 241.114931 
L 770.632664 241.193823 
L 772.845073 241.270618 
L 775.057482 241.345359 
L 777.269891 241.418085 
L 779.4823 241.488836 
L 781.694709 241.557651 
L 783.907118 241.624569 
L 786.119527 241.689628 
L 788.331936 241.752867 
L 790.544345 241.814323 
L 792.756755 241.874033 
L 794.969164 241.932034 
L 797.181573 241.988364 
L 799.393982 242.043058 
L 801.606391 242.096155 
L 803.8188 242.14769 
L 806.031209 242.197701 
L 808.243618 242.246224 
L 810.456027 242.293295 
L 812.668436 242.338952 
L 814.880845 242.383231 
L 817.093255 242.426169 
L 819.305664 242.467802 
L 821.518073 242.508167 
L 823.730482 242.5473 
L 825.942891 242.585238 
L 828.1553 242.622016 
L 830.367709 242.657671 
L 832.580118 242.692238 
L 834.792527 242.725753 
L 837.004936 242.758249 
L 839.217345 242.789761 
L 841.429754 242.820322 
L 843.642164 242.849967 
L 845.854573 242.878727 
L 848.066982 242.906634 
L 850.279391 242.933719 
L 852.4918 242.960012 
L 854.704209 242.985543 
L 856.916618 243.010339 
L 859.129027 243.03443 
L 861.341436 243.057841 
L 863.553845 243.080598 
L 865.766254 243.102725 
L 867.978664 243.124248 
L 870.191073 243.145189 
L 872.403482 243.165568 
L 874.615891 243.185409 
L 876.8283 243.20473 
L 879.040709 243.223551 
L 881.253118 243.24189 
L 883.465527 243.259765 
L 885.677936 243.277191 
L 887.890345 243.294184 
L 890.102754 243.310759 
L 892.315163 243.32693 
L 894.527573 243.342711 
L 896.739982 243.358114 
L 898.952391 243.37315 
L 901.1648 243.387831 
L 903.377209 243.402167 
L 905.589618 243.416169 
L 907.802027 243.429845 
L 910.014436 243.443205 
L 912.226845 243.456257 
L 914.439254 243.469009 
L 916.651663 243.481469 
L 918.864073 243.493644 
L 921.076482 243.505539 
L 923.288891 243.517163 
L 925.5013 243.528521 
L 927.713709 243.539619 
L 929.926118 243.550462 
L 932.138527 243.561056 
L 934.350936 243.571406 
L 936.563345 243.581517 
L 938.775754 243.591393 
L 940.988163 243.601039 
L 943.200572 243.610459 
L 945.412982 243.619659 
L 947.625391 243.628641 
L 949.8378 243.63741 
L 952.050209 243.64597 
L 954.262618 243.654324 
L 956.475027 243.662477 
L 958.687436 243.670432 
L 960.899845 243.678192 
L 963.112254 243.685761 
L 965.324663 243.693143 
L 967.537072 243.700341 
L 969.749482 243.707358 
L 971.961891 243.714197 
L 974.1743 243.720862 
L 976.386709 243.727357 
L 978.599118 243.733683 
L 980.811527 243.739845 
L 983.023936 243.745845 
L 985.236345 243.751686 
L 987.448754 243.757372 
L 989.661163 243.762906 
L 991.873572 243.768289 
L 994.085981 243.773526 
L 996.298391 243.778619 
L 998.5108 243.78357 
L 1000.723209 243.788384 
L 1002.935618 243.793062 
L 1005.148027 243.797607 
L 1007.360436 243.802021 
L 1009.572845 243.806308 
L 1011.785254 243.810471 
L 1013.997663 243.81451 
L 1016.210072 243.81843 
L 1018.422481 243.822233 
L 1020.634891 243.825921 
L 1022.8473 243.829496 
L 1025.059709 243.832961 
L 1027.272118 243.836319 
L 1029.484527 243.839571 
L 1031.696936 243.842719 
L 1033.909345 243.845767 
L 1036.121754 243.848716 
L 1038.334163 243.851569 
L 1040.546572 243.854326 
L 1042.758981 243.856992 
L 1044.97139 243.859567 
L 1047.1838 243.862054 
L 1049.396209 243.864454 
L 1051.608618 243.86677 
L 1053.821027 243.869004 
L 1056.033436 243.871157 
L 1058.245845 243.873231 
L 1060.458254 243.875228 
L 1062.670663 243.87715 
L 1064.883072 243.878998 
L 1067.095481 243.880775 
L 1069.30789 243.882481 
L 1071.5203 243.88412 
L 1073.732709 243.885691 
L 1075.945118 243.887197 
L 1078.157527 243.88864 
L 1080.369936 243.890021 
L 1082.582345 243.891341 
L 1084.794754 243.892602 
L 1087.007163 243.893806 
L 1089.219572 243.894953 
L 1091.431981 243.896046 
L 1093.64439 243.897086 
L 1095.856799 243.898074 
L 1098.069209 243.899011 
L 1098.069209 244.096 
L 1098.069209 244.096 
L 1095.856799 244.096 
L 1093.64439 244.096 
L 1091.431981 244.096 
L 1089.219572 244.096 
L 1087.007163 244.096 
L 1084.794754 244.096 
L 1082.582345 244.096 
L 1080.369936 244.096 
L 1078.157527 244.096 
L 1075.945118 244.096 
L 1073.732709 244.096 
L 1071.5203 244.096 
L 1069.30789 244.096 
L 1067.095481 244.096 
L 1064.883072 244.096 
L 1062.670663 244.096 
L 1060.458254 244.096 
L 1058.245845 244.096 
L 1056.033436 244.096 
L 1053.821027 244.096 
L 1051.608618 244.096 
L 1049.396209 244.096 
L 1047.1838 244.096 
L 1044.97139 244.096 
L 1042.758981 244.096 
L 1040.546572 244.096 
L 1038.334163 244.096 
L 1036.121754 244.096 
L 1033.909345 244.096 
L 1031.696936 244.096 
L 1029.484527 244.096 
L 1027.272118 244.096 
L 1025.059709 244.096 
L 1022.8473 244.096 
L 1020.634891 244.096 
L 1018.422481 244.096 
L 1016.210072 244.096 
L 1013.997663 244.096 
L 1011.785254 244.096 
L 1009.572845 244.096 
L 1007.360436 244.096 
L 1005.148027 244.096 
L 1002.935618 244.096 
L 1000.723209 244.096 
L 998.5108 244.096 
L 996.298391 244.096 
L 994.085981 244.096 
L 991.873572 244.096 
L 989.661163 244.096 
L 987.448754 244.096 
L 985.236345 244.096 
L 983.023936 244.096 
L 980.811527 244.096 
L 978.599118 244.096 
L 976.386709 244.096 
L 974.1743 244.096 
L 971.961891 244.096 
L 969.749482 244.096 
L 967.537072 244.096 
L 965.324663 244.096 
L 963.112254 244.096 
L 960.899845 244.096 
L 958.687436 244.096 
L 956.475027 244.096 
L 954.262618 244.096 
L 952.050209 244.096 
L 949.8378 244.096 
L 947.625391 244.096 
L 945.412982 244.096 
L 943.200572 244.096 
L 940.988163 244.096 
L 938.775754 244.096 
L 936.563345 244.096 
L 934.350936 244.096 
L 932.138527 244.096 
L 929.926118 244.096 
L 927.713709 244.096 
L 925.5013 244.096 
L 923.288891 244.096 
L 921.076482 244.096 
L 918.864073 244.096 
L 916.651663 244.096 
L 914.439254 244.096 
L 912.226845 244.096 
L 910.014436 244.096 
L 907.802027 244.096 
L 905.589618 244.096 
L 903.377209 244.096 
L 901.1648 244.096 
L 898.952391 244.096 
L 896.739982 244.096 
L 894.527573 244.096 
L 892.315163 244.096 
L 890.102754 244.096 
L 887.890345 244.096 
L 885.677936 244.096 
L 883.465527 244.096 
L 881.253118 244.096 
L 879.040709 244.096 
L 876.8283 244.096 
L 874.615891 244.096 
L 872.403482 244.096 
L 870.191073 244.096 
L 867.978664 244.096 
L 865.766254 244.096 
L 863.553845 244.096 
L 861.341436 244.096 
L 859.129027 244.096 
L 856.916618 244.096 
L 854.704209 244.096 
L 852.4918 244.096 
L 850.279391 244.096 
L 848.066982 244.096 
L 845.854573 244.096 
L 843.642164 244.096 
L 841.429754 244.096 
L 839.217345 244.096 
L 837.004936 244.096 
L 834.792527 244.096 
L 832.580118 244.096 
L 830.367709 244.096 
L 828.1553 244.096 
L 825.942891 244.096 
L 823.730482 244.096 
L 821.518073 244.096 
L 819.305664 244.096 
L 817.093255 244.096 
L 814.880845 244.096 
L 812.668436 244.096 
L 810.456027 244.096 
L 808.243618 244.096 
L 806.031209 244.096 
L 803.8188 244.096 
L 801.606391 244.096 
L 799.393982 244.096 
L 797.181573 244.096 
L 794.969164 244.096 
L 792.756755 244.096 
L 790.544345 244.096 
L 788.331936 244.096 
L 786.119527 244.096 
L 783.907118 244.096 
L 781.694709 244.096 
L 779.4823 244.096 
L 777.269891 244.096 
L 775.057482 244.096 
L 772.845073 244.096 
L 770.632664 244.096 
L 768.420255 244.096 
L 766.207846 244.096 
L 763.995436 244.096 
L 761.783027 244.096 
L 759.570618 244.096 
L 757.358209 244.096 
L 755.1458 244.096 
L 752.933391 244.096 
L 750.720982 244.096 
L 748.508573 244.096 
L 746.296164 244.096 
L 744.083755 244.096 
L 741.871346 244.096 
L 739.658936 244.096 
L 737.446527 244.096 
L 735.234118 244.096 
L 733.021709 244.096 
L 730.8093 244.096 
L 728.596891 244.096 
L 726.384482 244.096 
L 724.172073 244.096 
L 721.959664 244.096 
L 719.747255 244.096 
L 717.534846 244.096 
L 715.322437 244.096 
L 713.110027 244.096 
L 710.897618 244.096 
L 708.685209 244.096 
L 706.4728 244.096 
L 704.260391 244.096 
L 702.047982 244.096 
L 699.835573 244.096 
L 697.623164 244.096 
L 695.410755 244.096 
L 693.198346 244.096 
L 690.985937 244.096 
L 688.773527 244.096 
L 686.561118 244.096 
L 684.348709 244.096 
L 682.1363 244.096 
L 679.923891 244.096 
L 677.711482 244.096 
L 675.499073 244.096 
L 673.286664 244.096 
L 671.074255 244.096 
L 668.861846 244.096 
L 666.649437 244.096 
L 664.437028 244.096 
L 662.224618 244.096 
L 660.012209 244.096 
L 657.7998 244.096 
L 655.587391 244.096 
L 653.374982 244.096 
L 651.162573 244.096 
L 648.950164 244.096 
L 646.737755 244.096 
L 644.525346 244.096 
L 642.312937 244.096 
L 640.100528 244.096 
L 637.888118 244.096 
L 635.675709 244.096 
L 633.4633 244.096 
L 631.250891 244.096 
L 629.038482 244.096 
L 626.826073 244.096 
L 624.613664 244.096 
L 622.401255 244.096 
L 620.188846 244.096 
L 617.976437 244.096 
L 615.764028 244.096 
L 613.551619 244.096 
L 611.339209 244.096 
L 609.1268 244.096 
L 606.914391 244.096 
L 604.701982 244.096 
L 602.489573 244.096 
L 600.277164 244.096 
L 598.064755 244.096 
L 595.852346 244.096 
L 593.639937 244.096 
L 591.427528 244.096 
L 589.215119 244.096 
L 587.002709 244.096 
L 584.7903 244.096 
L 582.577891 244.096 
L 580.365482 244.096 
L 578.153073 244.096 
L 575.940664 244.096 
L 573.728255 244.096 
L 571.515846 244.096 
L 569.303437 244.096 
L 567.091028 244.096 
L 564.878619 244.096 
L 562.66621 244.096 
L 560.4538 244.096 
L 558.241391 244.096 
L 556.028982 244.096 
L 553.816573 244.096 
L 551.604164 244.096 
L 549.391755 244.096 
L 547.179346 244.096 
L 544.966937 244.096 
L 542.754528 244.096 
L 540.542119 244.096 
L 538.32971 244.096 
L 536.1173 244.096 
L 533.904891 244.096 
L 531.692482 244.096 
L 529.480073 244.096 
L 527.267664 244.096 
L 525.055255 244.096 
L 522.842846 244.096 
L 520.630437 244.096 
L 518.418028 244.096 
L 516.205619 244.096 
L 513.99321 244.096 
L 511.780801 244.096 
L 509.568391 244.096 
L 507.355982 244.096 
L 505.143573 244.096 
L 502.931164 244.096 
L 500.718755 244.096 
L 498.506346 244.096 
L 496.293937 244.096 
L 494.081528 244.096 
L 491.869119 244.096 
L 489.65671 244.096 
L 487.444301 244.096 
L 485.231891 244.096 
L 483.019482 244.096 
L 480.807073 244.096 
L 478.594664 244.096 
L 476.382255 244.096 
L 474.169846 244.096 
L 471.957437 244.096 
L 469.745028 244.096 
L 467.532619 244.096 
L 465.32021 244.096 
L 463.107801 244.096 
L 460.895392 244.096 
L 458.682982 244.096 
L 456.470573 244.096 
L 454.258164 244.096 
L 452.045755 244.096 
L 449.833346 244.096 
L 447.620937 244.096 
L 445.408528 244.096 
L 443.196119 244.096 
L 440.98371 244.096 
L 438.771301 244.096 
L 436.558892 244.096 
L 434.346482 244.096 
L 432.134073 244.096 
L 429.921664 244.096 
L 427.709255 244.096 
L 425.496846 244.096 
L 423.284437 244.096 
L 421.072028 244.096 
L 418.859619 244.096 
L 416.64721 244.096 
L 414.434801 244.096 
L 412.222392 244.096 
L 410.009983 244.096 
L 407.797573 244.096 
L 405.585164 244.096 
L 403.372755 244.096 
L 401.160346 244.096 
L 398.947937 244.096 
L 396.735528 244.096 
L 394.523119 244.096 
L 392.31071 244.096 
L 390.098301 244.096 
L 387.885892 244.096 
L 385.673483 244.096 
L 383.461073 244.096 
L 381.248664 244.096 
L 379.036255 244.096 
L 376.823846 244.096 
L 374.611437 244.096 
L 372.399028 244.096 
L 370.186619 244.096 
L 367.97421 244.096 
L 365.761801 244.096 
L 363.549392 244.096 
L 361.336983 244.096 
L 359.124574 244.096 
L 356.912164 244.096 
L 354.699755 244.096 
L 352.487346 244.096 
L 350.274937 244.096 
L 348.062528 244.096 
L 345.850119 244.096 
L 343.63771 244.096 
L 341.425301 244.096 
L 339.212892 244.096 
L 337.000483 244.096 
L 334.788074 244.096 
L 332.575664 244.096 
L 330.363255 244.096 
L 328.150846 244.096 
L 325.938437 244.096 
L 323.726028 244.096 
L 321.513619 244.096 
L 319.30121 244.096 
L 317.088801 244.096 
L 314.876392 244.096 
L 312.663983 244.096 
L 310.451574 244.096 
L 308.239165 244.096 
L 306.026755 244.096 
L 303.814346 244.096 
L 301.601937 244.096 
L 299.389528 244.096 
L 297.177119 244.096 
L 294.96471 244.096 
L 292.752301 244.096 
L 290.539892 244.096 
L 288.327483 244.096 
L 286.115074 244.096 
L 283.902665 244.096 
L 281.690255 244.096 
L 279.477846 244.096 
L 277.265437 244.096 
L 275.053028 244.096 
L 272.840619 244.096 
L 270.62821 244.096 
L 268.415801 244.096 
L 266.203392 244.096 
L 263.990983 244.096 
L 261.778574 244.096 
L 259.566165 244.096 
L 257.353756 244.096 
L 255.141346 244.096 
L 252.928937 244.096 
L 250.716528 244.096 
L 248.504119 244.096 
L 246.29171 244.096 
L 244.079301 244.096 
L 241.866892 244.096 
L 239.654483 244.096 
L 237.442074 244.096 
L 235.229665 244.096 
L 233.017256 244.096 
L 230.804846 244.096 
L 228.592437 244.096 
L 226.380028 244.096 
L 224.167619 244.096 
L 221.95521 244.096 
L 219.742801 244.096 
L 217.530392 244.096 
L 215.317983 244.096 
L 213.105574 244.096 
L 210.893165 244.096 
L 208.680756 244.096 
L 206.468347 244.096 
L 204.255937 244.096 
L 202.043528 244.096 
L 199.831119 244.096 
L 197.61871 244.096 
L 195.406301 244.096 
L 193.193892 244.096 
L 190.981483 244.096 
L 188.769074 244.096 
L 186.556665 244.096 
L 184.344256 244.096 
L 182.131847 244.096 
L 179.919437 244.096 
L 177.707028 244.096 
L 175.494619 244.096 
L 173.28221 244.096 
L 171.069801 244.096 
L 168.857392 244.096 
L 166.644983 244.096 
L 164.432574 244.096 
L 162.220165 244.096 
L 160.007756 244.096 
L 157.795347 244.096 
L 155.582938 244.096 
L 153.370528 244.096 
L 151.158119 244.096 
L 148.94571 244.096 
L 146.733301 244.096 
L 144.520892 244.096 
L 142.308483 244.096 
L 140.096074 244.096 
L 137.883665 244.096 
L 135.671256 244.096 
L 133.458847 244.096 
L 131.246438 244.096 
L 129.034028 244.096 
L 126.821619 244.096 
L 124.60921 244.096 
L 122.396801 244.096 
L 120.184392 244.096 
L 117.971983 244.096 
L 115.759574 244.096 
L 113.547165 244.096 
L 111.334756 244.096 
L 109.122347 244.096 
L 106.909938 244.096 
L 104.697529 244.096 
L 102.485119 244.096 
L 100.27271 244.096 
L 98.060301 244.096 
L 95.847892 244.096 
L 93.635483 244.096 
L 91.423074 244.096 
L 89.210665 244.096 
L 86.998256 244.096 
L 84.785847 244.096 
L 82.573438 244.096 
L 80.361029 244.096 
L 78.148619 244.096 
L 75.93621 244.096 
L 73.723801 244.096 
L 71.511392 244.096 
L 69.298983 244.096 
L 67.086574 244.096 
L 64.874165 244.096 
L 62.661756 244.096 
L 60.449347 244.096 
L 58.236938 244.096 
L 56.024529 244.096 
L 53.81212 244.096 
L 51.59971 244.096 
L 49.387301 244.096 
L 47.174892 244.096 
L 44.962483 244.096 
L 42.750074 244.096 
L 40.537665 244.096 
L 38.325256 244.096 
L 36.112847 244.096 
L 33.900438 244.096 
L 31.688029 244.096 
L 29.47562 244.096 
L 27.26321 244.096 
L 25.050801 244.096 
L 22.838392 244.096 
L 20.625983 244.096 
L 18.413574 244.096 
L 16.201165 244.096 
L 13.988756 244.096 
L 11.776347 244.096 
L 9.563938 244.096 
L 7.351529 244.096 
L 5.13912 244.096 
L 2.926711 244.096 
L 0.714301 244.096 
L -1.498108 244.096 
L -3.710517 244.096 
L -5.922926 244.096 
L -8.135335 244.096 
L -10.347744 244.096 
L -12.560153 244.096 
L -14.772562 244.096 
L -16.984971 244.096 
L -19.19738 244.096 
L -21.409789 244.096 
L -23.622199 244.096 
L -25.834608 244.096 
L -28.047017 244.096 
L -30.259426 244.096 
L -32.471835 244.096 
z
" clip-path="url(#p8c4de7d7e5)" style="fill: #1f77b4; fill-opacity: 0.5"/>
   </g>
   <g id="PolyCollection_2">
    <path d="M 64.874165 244.096 
L 64.874165 212.0794 
L 67.086574 210.257663 
L 69.298983 208.336872 
L 71.511392 206.316251 
L 73.723801 204.194926 
L 75.93621 201.9715 
L 78.148619 199.64353 
L 80.361029 197.206968 
L 82.573438 194.655586 
L 84.785847 191.980493 
L 86.998256 189.169809 
L 89.210665 186.208607 
L 91.423074 183.079233 
L 93.635483 179.762086 
L 95.847892 176.236937 
L 98.060301 172.484782 
L 100.27271 168.490156 
L 102.485119 164.243714 
L 104.697529 159.744739 
L 106.909938 155.003114 
L 109.122347 150.040231 
L 111.334756 144.888353 
L 113.547165 139.588198 
L 115.759574 134.184969 
L 117.971983 128.723587 
L 120.184392 123.244396 
L 122.396801 117.780747 
L 124.60921 112.359499 
L 126.821619 107.004475 
L 129.034028 101.741623 
L 131.246438 96.60352 
L 133.458847 91.630523 
L 135.671256 86.866755 
L 137.883665 82.350994 
L 140.096074 78.104885 
L 142.308483 74.122666 
L 144.520892 70.366839 
L 146.733301 66.772753 
L 148.94571 63.262026 
L 151.158119 59.761458 
L 153.370528 56.221766 
L 155.582938 52.630369 
L 157.795347 49.014727 
L 160.007756 45.436498 
L 162.220165 41.980148 
L 164.432574 38.740832 
L 166.644983 35.814799 
L 168.857392 33.2923 
L 171.069801 31.250374 
L 173.28221 29.743033 
L 175.494619 28.789198 
L 177.707028 28.362625 
L 179.919437 28.389781 
L 182.131847 28.759707 
L 184.344256 29.344869 
L 186.556665 30.026848 
L 188.769074 30.718592 
L 190.981483 31.37704 
L 193.193892 32.004616 
L 195.406301 32.64244 
L 197.61871 33.359598 
L 199.831119 34.241636 
L 202.043528 35.379197 
L 204.255937 36.856418 
L 206.468347 38.738967 
L 208.680756 41.06275 
L 210.893165 43.825317 
L 213.105574 46.98231 
L 215.317983 50.450774 
L 217.530392 54.119869 
L 219.742801 57.867689 
L 221.95521 61.580822 
L 224.167619 65.172014 
L 226.380028 68.591531 
L 228.592437 71.829724 
L 230.804846 74.91102 
L 233.017256 77.881995 
L 235.229665 80.797249 
L 237.442074 83.706609 
L 239.654483 86.64599 
L 241.866892 89.632933 
L 244.079301 92.666611 
L 246.29171 95.731241 
L 248.504119 98.801311 
L 250.716528 101.846979 
L 252.928937 104.838362 
L 255.141346 107.748158 
L 257.353756 110.552862 
L 259.566165 113.233359 
L 261.778574 115.775695 
L 263.990983 118.17239 
L 266.203392 120.424018 
L 268.415801 122.540275 
L 270.62821 124.539741 
L 272.840619 126.447869 
L 275.053028 128.293439 
L 277.265437 130.104276 
L 279.477846 131.903284 
L 281.690255 133.70576 
L 283.902665 135.518453 
L 286.115074 137.34029 
L 288.327483 139.164252 
L 290.539892 140.979664 
L 292.752301 142.77427 
L 294.96471 144.535707 
L 297.177119 146.252277 
L 299.389528 147.913181 
L 301.601937 149.508457 
L 303.814346 151.028868 
L 306.026755 152.46589 
L 308.239165 153.811827 
L 310.451574 155.060049 
L 312.663983 156.205273 
L 314.876392 157.243835 
L 317.088801 158.173955 
L 319.30121 158.995967 
L 321.513619 159.712539 
L 323.726028 160.328875 
L 325.938437 160.852868 
L 328.150846 161.295157 
L 330.363255 161.669023 
L 332.575664 161.990081 
L 334.788074 162.275708 
L 337.000483 162.54422 
L 339.212892 162.813819 
L 341.425301 163.101392 
L 343.63771 163.421271 
L 345.850119 163.784088 
L 348.062528 164.195866 
L 350.274937 164.657484 
L 352.487346 165.164589 
L 354.699755 165.707991 
L 356.912164 166.274495 
L 359.124574 166.848069 
L 361.336983 167.411203 
L 363.549392 167.946284 
L 365.761801 168.436866 
L 367.97421 168.868723 
L 370.186619 169.230645 
L 372.399028 169.514987 
L 374.611437 169.718021 
L 376.823846 169.840114 
L 379.036255 169.885783 
L 381.248664 169.863596 
L 383.461073 169.7859 
L 385.673483 169.668308 
L 387.885892 169.528923 
L 390.098301 169.387293 
L 392.31071 169.263155 
L 394.523119 169.175087 
L 396.735528 169.139212 
L 398.947937 169.168132 
L 401.160346 169.270236 
L 403.372755 169.449468 
L 405.585164 169.705597 
L 407.797573 170.034922 
L 410.009983 170.431306 
L 412.222392 170.887373 
L 414.434801 171.395689 
L 416.64721 171.949754 
L 418.859619 172.544674 
L 421.072028 173.177439 
L 423.284437 173.846799 
L 425.496846 174.552783 
L 427.709255 175.295979 
L 429.921664 176.07672 
L 432.134073 176.89432 
L 434.346482 177.74651 
L 436.558892 178.629156 
L 438.771301 179.53632 
L 440.98371 180.460619 
L 443.196119 181.393834 
L 445.408528 182.32764 
L 447.620937 183.254339 
L 449.833346 184.167475 
L 452.045755 185.062254 
L 454.258164 185.935706 
L 456.470573 186.786608 
L 458.682982 187.615198 
L 460.895392 188.422748 
L 463.107801 189.21108 
L 465.32021 189.982106 
L 467.532619 190.737439 
L 469.745028 191.478135 
L 471.957437 192.204569 
L 474.169846 192.916435 
L 476.382255 193.612856 
L 478.594664 194.292563 
L 480.807073 194.954102 
L 483.019482 195.596049 
L 485.231891 196.217196 
L 487.444301 196.816699 
L 489.65671 197.394165 
L 491.869119 197.949707 
L 494.081528 198.483937 
L 496.293937 198.997934 
L 498.506346 199.493186 
L 500.718755 199.971509 
L 502.931164 200.434968 
L 505.143573 200.8858 
L 507.355982 201.326336 
L 509.568391 201.758949 
L 511.780801 202.186004 
L 513.99321 202.609835 
L 516.205619 203.032727 
L 518.418028 203.456918 
L 520.630437 203.884599 
L 522.842846 204.317922 
L 525.055255 204.759 
L 527.267664 205.209895 
L 529.480073 205.672592 
L 531.692482 206.148953 
L 533.904891 206.64066 
L 536.1173 207.149137 
L 538.32971 207.675466 
L 540.542119 208.220307 
L 542.754528 208.783822 
L 544.966937 209.365618 
L 547.179346 209.964716 
L 549.391755 210.579553 
L 551.604164 211.208014 
L 553.816573 211.847499 
L 556.028982 212.49502 
L 558.241391 213.147323 
L 560.4538 213.801019 
L 562.66621 214.452725 
L 564.878619 215.099196 
L 567.091028 215.737448 
L 569.303437 216.364856 
L 571.515846 216.979226 
L 573.728255 217.578841 
L 575.940664 218.162479 
L 578.153073 218.729398 
L 580.365482 219.27931 
L 582.577891 219.812324 
L 584.7903 220.328888 
L 587.002709 220.829716 
L 589.215119 221.315726 
L 591.427528 221.787962 
L 593.639937 222.247544 
L 595.852346 222.69561 
L 598.064755 223.133275 
L 600.277164 223.561599 
L 602.489573 223.981565 
L 604.701982 224.394062 
L 606.914391 224.799881 
L 609.1268 225.199707 
L 611.339209 225.594126 
L 613.551619 225.983626 
L 615.764028 226.368606 
L 617.976437 226.749376 
L 620.188846 227.126174 
L 622.401255 227.499161 
L 624.613664 227.868439 
L 626.826073 228.234046 
L 626.826073 244.096 
L 626.826073 244.096 
L 624.613664 244.096 
L 622.401255 244.096 
L 620.188846 244.096 
L 617.976437 244.096 
L 615.764028 244.096 
L 613.551619 244.096 
L 611.339209 244.096 
L 609.1268 244.096 
L 606.914391 244.096 
L 604.701982 244.096 
L 602.489573 244.096 
L 600.277164 244.096 
L 598.064755 244.096 
L 595.852346 244.096 
L 593.639937 244.096 
L 591.427528 244.096 
L 589.215119 244.096 
L 587.002709 244.096 
L 584.7903 244.096 
L 582.577891 244.096 
L 580.365482 244.096 
L 578.153073 244.096 
L 575.940664 244.096 
L 573.728255 244.096 
L 571.515846 244.096 
L 569.303437 244.096 
L 567.091028 244.096 
L 564.878619 244.096 
L 562.66621 244.096 
L 560.4538 244.096 
L 558.241391 244.096 
L 556.028982 244.096 
L 553.816573 244.096 
L 551.604164 244.096 
L 549.391755 244.096 
L 547.179346 244.096 
L 544.966937 244.096 
L 542.754528 244.096 
L 540.542119 244.096 
L 538.32971 244.096 
L 536.1173 244.096 
L 533.904891 244.096 
L 531.692482 244.096 
L 529.480073 244.096 
L 527.267664 244.096 
L 525.055255 244.096 
L 522.842846 244.096 
L 520.630437 244.096 
L 518.418028 244.096 
L 516.205619 244.096 
L 513.99321 244.096 
L 511.780801 244.096 
L 509.568391 244.096 
L 507.355982 244.096 
L 505.143573 244.096 
L 502.931164 244.096 
L 500.718755 244.096 
L 498.506346 244.096 
L 496.293937 244.096 
L 494.081528 244.096 
L 491.869119 244.096 
L 489.65671 244.096 
L 487.444301 244.096 
L 485.231891 244.096 
L 483.019482 244.096 
L 480.807073 244.096 
L 478.594664 244.096 
L 476.382255 244.096 
L 474.169846 244.096 
L 471.957437 244.096 
L 469.745028 244.096 
L 467.532619 244.096 
L 465.32021 244.096 
L 463.107801 244.096 
L 460.895392 244.096 
L 458.682982 244.096 
L 456.470573 244.096 
L 454.258164 244.096 
L 452.045755 244.096 
L 449.833346 244.096 
L 447.620937 244.096 
L 445.408528 244.096 
L 443.196119 244.096 
L 440.98371 244.096 
L 438.771301 244.096 
L 436.558892 244.096 
L 434.346482 244.096 
L 432.134073 244.096 
L 429.921664 244.096 
L 427.709255 244.096 
L 425.496846 244.096 
L 423.284437 244.096 
L 421.072028 244.096 
L 418.859619 244.096 
L 416.64721 244.096 
L 414.434801 244.096 
L 412.222392 244.096 
L 410.009983 244.096 
L 407.797573 244.096 
L 405.585164 244.096 
L 403.372755 244.096 
L 401.160346 244.096 
L 398.947937 244.096 
L 396.735528 244.096 
L 394.523119 244.096 
L 392.31071 244.096 
L 390.098301 244.096 
L 387.885892 244.096 
L 385.673483 244.096 
L 383.461073 244.096 
L 381.248664 244.096 
L 379.036255 244.096 
L 376.823846 244.096 
L 374.611437 244.096 
L 372.399028 244.096 
L 370.186619 244.096 
L 367.97421 244.096 
L 365.761801 244.096 
L 363.549392 244.096 
L 361.336983 244.096 
L 359.124574 244.096 
L 356.912164 244.096 
L 354.699755 244.096 
L 352.487346 244.096 
L 350.274937 244.096 
L 348.062528 244.096 
L 345.850119 244.096 
L 343.63771 244.096 
L 341.425301 244.096 
L 339.212892 244.096 
L 337.000483 244.096 
L 334.788074 244.096 
L 332.575664 244.096 
L 330.363255 244.096 
L 328.150846 244.096 
L 325.938437 244.096 
L 323.726028 244.096 
L 321.513619 244.096 
L 319.30121 244.096 
L 317.088801 244.096 
L 314.876392 244.096 
L 312.663983 244.096 
L 310.451574 244.096 
L 308.239165 244.096 
L 306.026755 244.096 
L 303.814346 244.096 
L 301.601937 244.096 
L 299.389528 244.096 
L 297.177119 244.096 
L 294.96471 244.096 
L 292.752301 244.096 
L 290.539892 244.096 
L 288.327483 244.096 
L 286.115074 244.096 
L 283.902665 244.096 
L 281.690255 244.096 
L 279.477846 244.096 
L 277.265437 244.096 
L 275.053028 244.096 
L 272.840619 244.096 
L 270.62821 244.096 
L 268.415801 244.096 
L 266.203392 244.096 
L 263.990983 244.096 
L 261.778574 244.096 
L 259.566165 244.096 
L 257.353756 244.096 
L 255.141346 244.096 
L 252.928937 244.096 
L 250.716528 244.096 
L 248.504119 244.096 
L 246.29171 244.096 
L 244.079301 244.096 
L 241.866892 244.096 
L 239.654483 244.096 
L 237.442074 244.096 
L 235.229665 244.096 
L 233.017256 244.096 
L 230.804846 244.096 
L 228.592437 244.096 
L 226.380028 244.096 
L 224.167619 244.096 
L 221.95521 244.096 
L 219.742801 244.096 
L 217.530392 244.096 
L 215.317983 244.096 
L 213.105574 244.096 
L 210.893165 244.096 
L 208.680756 244.096 
L 206.468347 244.096 
L 204.255937 244.096 
L 202.043528 244.096 
L 199.831119 244.096 
L 197.61871 244.096 
L 195.406301 244.096 
L 193.193892 244.096 
L 190.981483 244.096 
L 188.769074 244.096 
L 186.556665 244.096 
L 184.344256 244.096 
L 182.131847 244.096 
L 179.919437 244.096 
L 177.707028 244.096 
L 175.494619 244.096 
L 173.28221 244.096 
L 171.069801 244.096 
L 168.857392 244.096 
L 166.644983 244.096 
L 164.432574 244.096 
L 162.220165 244.096 
L 160.007756 244.096 
L 157.795347 244.096 
L 155.582938 244.096 
L 153.370528 244.096 
L 151.158119 244.096 
L 148.94571 244.096 
L 146.733301 244.096 
L 144.520892 244.096 
L 142.308483 244.096 
L 140.096074 244.096 
L 137.883665 244.096 
L 135.671256 244.096 
L 133.458847 244.096 
L 131.246438 244.096 
L 129.034028 244.096 
L 126.821619 244.096 
L 124.60921 244.096 
L 122.396801 244.096 
L 120.184392 244.096 
L 117.971983 244.096 
L 115.759574 244.096 
L 113.547165 244.096 
L 111.334756 244.096 
L 109.122347 244.096 
L 106.909938 244.096 
L 104.697529 244.096 
L 102.485119 244.096 
L 100.27271 244.096 
L 98.060301 244.096 
L 95.847892 244.096 
L 93.635483 244.096 
L 91.423074 244.096 
L 89.210665 244.096 
L 86.998256 244.096 
L 84.785847 244.096 
L 82.573438 244.096 
L 80.361029 244.096 
L 78.148619 244.096 
L 75.93621 244.096 
L 73.723801 244.096 
L 71.511392 244.096 
L 69.298983 244.096 
L 67.086574 244.096 
L 64.874165 244.096 
z
" clip-path="url(#p8c4de7d7e5)" style="fill-opacity: 0.25"/>
   </g>
   <g id="PolyCollection_3">
    <path d="M 144.520892 244.096 
L 144.520892 70.366839 
L 146.733301 66.772753 
L 148.94571 63.262026 
L 151.158119 59.761458 
L 153.370528 56.221766 
L 155.582938 52.630369 
L 157.795347 49.014727 
L 160.007756 45.436498 
L 162.220165 41.980148 
L 164.432574 38.740832 
L 166.644983 35.814799 
L 168.857392 33.2923 
L 171.069801 31.250374 
L 173.28221 29.743033 
L 175.494619 28.789198 
L 177.707028 28.362625 
L 179.919437 28.389781 
L 182.131847 28.759707 
L 184.344256 29.344869 
L 186.556665 30.026848 
L 188.769074 30.718592 
L 190.981483 31.37704 
L 193.193892 32.004616 
L 195.406301 32.64244 
L 197.61871 33.359598 
L 199.831119 34.241636 
L 202.043528 35.379197 
L 204.255937 36.856418 
L 206.468347 38.738967 
L 208.680756 41.06275 
L 210.893165 43.825317 
L 213.105574 46.98231 
L 215.317983 50.450774 
L 217.530392 54.119869 
L 219.742801 57.867689 
L 221.95521 61.580822 
L 224.167619 65.172014 
L 226.380028 68.591531 
L 228.592437 71.829724 
L 230.804846 74.91102 
L 233.017256 77.881995 
L 235.229665 80.797249 
L 237.442074 83.706609 
L 239.654483 86.64599 
L 241.866892 89.632933 
L 244.079301 92.666611 
L 246.29171 95.731241 
L 248.504119 98.801311 
L 250.716528 101.846979 
L 252.928937 104.838362 
L 255.141346 107.748158 
L 257.353756 110.552862 
L 259.566165 113.233359 
L 261.778574 115.775695 
L 263.990983 118.17239 
L 266.203392 120.424018 
L 268.415801 122.540275 
L 270.62821 124.539741 
L 272.840619 126.447869 
L 275.053028 128.293439 
L 277.265437 130.104276 
L 279.477846 131.903284 
L 281.690255 133.70576 
L 283.902665 135.518453 
L 286.115074 137.34029 
L 288.327483 139.164252 
L 290.539892 140.979664 
L 292.752301 142.77427 
L 294.96471 144.535707 
L 297.177119 146.252277 
L 299.389528 147.913181 
L 301.601937 149.508457 
L 303.814346 151.028868 
L 306.026755 152.46589 
L 308.239165 153.811827 
L 310.451574 155.060049 
L 312.663983 156.205273 
L 314.876392 157.243835 
L 317.088801 158.173955 
L 319.30121 158.995967 
L 321.513619 159.712539 
L 323.726028 160.328875 
L 325.938437 160.852868 
L 328.150846 161.295157 
L 330.363255 161.669023 
L 332.575664 161.990081 
L 334.788074 162.275708 
L 337.000483 162.54422 
L 339.212892 162.813819 
L 341.425301 163.101392 
L 343.63771 163.421271 
L 345.850119 163.784088 
L 348.062528 164.195866 
L 350.274937 164.657484 
L 352.487346 165.164589 
L 354.699755 165.707991 
L 356.912164 166.274495 
L 359.124574 166.848069 
L 361.336983 167.411203 
L 363.549392 167.946284 
L 365.761801 168.436866 
L 367.97421 168.868723 
L 370.186619 169.230645 
L 372.399028 169.514987 
L 374.611437 169.718021 
L 376.823846 169.840114 
L 379.036255 169.885783 
L 381.248664 169.863596 
L 383.461073 169.7859 
L 385.673483 169.668308 
L 387.885892 169.528923 
L 390.098301 169.387293 
L 392.31071 169.263155 
L 394.523119 169.175087 
L 396.735528 169.139212 
L 398.947937 169.168132 
L 401.160346 169.270236 
L 403.372755 169.449468 
L 405.585164 169.705597 
L 407.797573 170.034922 
L 410.009983 170.431306 
L 412.222392 170.887373 
L 414.434801 171.395689 
L 416.64721 171.949754 
L 418.859619 172.544674 
L 421.072028 173.177439 
L 423.284437 173.846799 
L 425.496846 174.552783 
L 427.709255 175.295979 
L 429.921664 176.07672 
L 432.134073 176.89432 
L 432.134073 244.096 
L 432.134073 244.096 
L 429.921664 244.096 
L 427.709255 244.096 
L 425.496846 244.096 
L 423.284437 244.096 
L 421.072028 244.096 
L 418.859619 244.096 
L 416.64721 244.096 
L 414.434801 244.096 
L 412.222392 244.096 
L 410.009983 244.096 
L 407.797573 244.096 
L 405.585164 244.096 
L 403.372755 244.096 
L 401.160346 244.096 
L 398.947937 244.096 
L 396.735528 244.096 
L 394.523119 244.096 
L 392.31071 244.096 
L 390.098301 244.096 
L 387.885892 244.096 
L 385.673483 244.096 
L 383.461073 244.096 
L 381.248664 244.096 
L 379.036255 244.096 
L 376.823846 244.096 
L 374.611437 244.096 
L 372.399028 244.096 
L 370.186619 244.096 
L 367.97421 244.096 
L 365.761801 244.096 
L 363.549392 244.096 
L 361.336983 244.096 
L 359.124574 244.096 
L 356.912164 244.096 
L 354.699755 244.096 
L 352.487346 244.096 
L 350.274937 244.096 
L 348.062528 244.096 
L 345.850119 244.096 
L 343.63771 244.096 
L 341.425301 244.096 
L 339.212892 244.096 
L 337.000483 244.096 
L 334.788074 244.096 
L 332.575664 244.096 
L 330.363255 244.096 
L 328.150846 244.096 
L 325.938437 244.096 
L 323.726028 244.096 
L 321.513619 244.096 
L 319.30121 244.096 
L 317.088801 244.096 
L 314.876392 244.096 
L 312.663983 244.096 
L 310.451574 244.096 
L 308.239165 244.096 
L 306.026755 244.096 
L 303.814346 244.096 
L 301.601937 244.096 
L 299.389528 244.096 
L 297.177119 244.096 
L 294.96471 244.096 
L 292.752301 244.096 
L 290.539892 244.096 
L 288.327483 244.096 
L 286.115074 244.096 
L 283.902665 244.096 
L 281.690255 244.096 
L 279.477846 244.096 
L 277.265437 244.096 
L 275.053028 244.096 
L 272.840619 244.096 
L 270.62821 244.096 
L 268.415801 244.096 
L 266.203392 244.096 
L 263.990983 244.096 
L 261.778574 244.096 
L 259.566165 244.096 
L 257.353756 244.096 
L 255.141346 244.096 
L 252.928937 244.096 
L 250.716528 244.096 
L 248.504119 244.096 
L 246.29171 244.096 
L 244.079301 244.096 
L 241.866892 244.096 
L 239.654483 244.096 
L 237.442074 244.096 
L 235.229665 244.096 
L 233.017256 244.096 
L 230.804846 244.096 
L 228.592437 244.096 
L 226.380028 244.096 
L 224.167619 244.096 
L 221.95521 244.096 
L 219.742801 244.096 
L 217.530392 244.096 
L 215.317983 244.096 
L 213.105574 244.096 
L 210.893165 244.096 
L 208.680756 244.096 
L 206.468347 244.096 
L 204.255937 244.096 
L 202.043528 244.096 
L 199.831119 244.096 
L 197.61871 244.096 
L 195.406301 244.096 
L 193.193892 244.096 
L 190.981483 244.096 
L 188.769074 244.096 
L 186.556665 244.096 
L 184.344256 244.096 
L 182.131847 244.096 
L 179.919437 244.096 
L 177.707028 244.096 
L 175.494619 244.096 
L 173.28221 244.096 
L 171.069801 244.096 
L 168.857392 244.096 
L 166.644983 244.096 
L 164.432574 244.096 
L 162.220165 244.096 
L 160.007756 244.096 
L 157.795347 244.096 
L 155.582938 244.096 
L 153.370528 244.096 
L 151.158119 244.096 
L 148.94571 244.096 
L 146.733301 244.096 
L 144.520892 244.096 
z
" clip-path="url(#p8c4de7d7e5)" style="fill-opacity: 0.25"/>
   </g>
   <g id="matplotlib.axis_1">
    <g id="xtick_1">
     <g id="line2d_1">
      <defs>
       <path id="ma10d6e7d78" d="M 0 0 
L 0 3.5 
" style="stroke: #000000; stroke-width: 0.8"/>
      </defs>
      <g>
       <use xlink:href="#ma10d6e7d78" x="88.946176" y="244.096" style="stroke: #000000; stroke-width: 0.8"/>
      </g>
     </g>
     <g id="text_1">
      <!-- 2 -->
      <g transform="translate(85.764926 258.694437)scale(0.1 -0.1)">
       <defs>
        <path id="DejaVuSans-32" d="M 1228 531 
L 3431 531 
L 3431 0 
L 469 0 
L 469 531 
Q 828 903 1448 1529 
Q 2069 2156 2228 2338 
Q 2531 2678 2651 2914 
Q 2772 3150 2772 3378 
Q 2772 3750 2511 3984 
Q 2250 4219 1831 4219 
Q 1534 4219 1204 4116 
Q 875 4013 500 3803 
L 500 4441 
Q 881 4594 1212 4672 
Q 1544 4750 1819 4750 
Q 2544 4750 2975 4387 
Q 3406 4025 3406 3419 
Q 3406 3131 3298 2873 
Q 3191 2616 2906 2266 
Q 2828 2175 2409 1742 
Q 1991 1309 1228 531 
z
" transform="scale(0.015625)"/>
       </defs>
       <use xlink:href="#DejaVuSans-32"/>
      </g>
     </g>
    </g>
    <g id="xtick_2">
     <g id="line2d_2">
      <g>
       <use xlink:href="#ma10d6e7d78" x="211.471472" y="244.096" style="stroke: #000000; stroke-width: 0.8"/>
      </g>
     </g>
     <g id="text_2">
      <!-- 4 -->
      <g transform="translate(208.290222 258.694437)scale(0.1 -0.1)">
       <defs>
        <path id="DejaVuSans-34" d="M 2419 4116 
L 825 1625 
L 2419 1625 
L 2419 4116 
z
M 2253 4666 
L 3047 4666 
L 3047 1625 
L 3713 1625 
L 3713 1100 
L 3047 1100 
L 3047 0 
L 2419 0 
L 2419 1100 
L 313 1100 
L 313 1709 
L 2253 4666 
z
" transform="scale(0.015625)"/>
       </defs>
       <use xlink:href="#DejaVuSans-34"/>
      </g>
     </g>
    </g>
    <g id="xtick_3">
     <g id="line2d_3">
      <g>
       <use xlink:href="#ma10d6e7d78" x="333.996769" y="244.096" style="stroke: #000000; stroke-width: 0.8"/>
      </g>
     </g>
     <g id="text_3">
      <!-- 6 -->
      <g transform="translate(330.815519 258.694437)scale(0.1 -0.1)">
       <defs>
        <path id="DejaVuSans-36" d="M 2113 2584 
Q 1688 2584 1439 2293 
Q 1191 2003 1191 1497 
Q 1191 994 1439 701 
Q 1688 409 2113 409 
Q 2538 409 2786 701 
Q 3034 994 3034 1497 
Q 3034 2003 2786 2293 
Q 2538 2584 2113 2584 
z
M 3366 4563 
L 3366 3988 
Q 3128 4100 2886 4159 
Q 2644 4219 2406 4219 
Q 1781 4219 1451 3797 
Q 1122 3375 1075 2522 
Q 1259 2794 1537 2939 
Q 1816 3084 2150 3084 
Q 2853 3084 3261 2657 
Q 3669 2231 3669 1497 
Q 3669 778 3244 343 
Q 2819 -91 2113 -91 
Q 1303 -91 875 529 
Q 447 1150 447 2328 
Q 447 3434 972 4092 
Q 1497 4750 2381 4750 
Q 2619 4750 2861 4703 
Q 3103 4656 3366 4563 
z
" transform="scale(0.015625)"/>
       </defs>
       <use xlink:href="#DejaVuSans-36"/>
      </g>
     </g>
    </g>
    <g id="xtick_4">
     <g id="line2d_4">
      <g>
       <use xlink:href="#ma10d6e7d78" x="456.522065" y="244.096" style="stroke: #000000; stroke-width: 0.8"/>
      </g>
     </g>
     <g id="text_4">
      <!-- 8 -->
      <g transform="translate(453.340815 258.694437)scale(0.1 -0.1)">
       <defs>
        <path id="DejaVuSans-38" d="M 2034 2216 
Q 1584 2216 1326 1975 
Q 1069 1734 1069 1313 
Q 1069 891 1326 650 
Q 1584 409 2034 409 
Q 2484 409 2743 651 
Q 3003 894 3003 1313 
Q 3003 1734 2745 1975 
Q 2488 2216 2034 2216 
z
M 1403 2484 
Q 997 2584 770 2862 
Q 544 3141 544 3541 
Q 544 4100 942 4425 
Q 1341 4750 2034 4750 
Q 2731 4750 3128 4425 
Q 3525 4100 3525 3541 
Q 3525 3141 3298 2862 
Q 3072 2584 2669 2484 
Q 3125 2378 3379 2068 
Q 3634 1759 3634 1313 
Q 3634 634 3220 271 
Q 2806 -91 2034 -91 
Q 1263 -91 848 271 
Q 434 634 434 1313 
Q 434 1759 690 2068 
Q 947 2378 1403 2484 
z
M 1172 3481 
Q 1172 3119 1398 2916 
Q 1625 2713 2034 2713 
Q 2441 2713 2670 2916 
Q 2900 3119 2900 3481 
Q 2900 3844 2670 4047 
Q 2441 4250 2034 4250 
Q 1625 4250 1398 4047 
Q 1172 3844 1172 3481 
z
" transform="scale(0.015625)"/>
       </defs>
       <use xlink:href="#DejaVuSans-38"/>
      </g>
     </g>
    </g>
    <g id="xtick_5">
     <g id="line2d_5">
      <g>
       <use xlink:href="#ma10d6e7d78" x="579.047361" y="244.096" style="stroke: #000000; stroke-width: 0.8"/>
      </g>
     </g>
     <g id="text_5">
      <!-- 10 -->
      <g transform="translate(572.684861 258.694437)scale(0.1 -0.1)">
       <defs>
        <path id="DejaVuSans-31" d="M 794 531 
L 1825 531 
L 1825 4091 
L 703 3866 
L 703 4441 
L 1819 4666 
L 2450 4666 
L 2450 531 
L 3481 531 
L 3481 0 
L 794 0 
L 794 531 
z
" transform="scale(0.015625)"/>
        <path id="DejaVuSans-30" d="M 2034 4250 
Q 1547 4250 1301 3770 
Q 1056 3291 1056 2328 
Q 1056 1369 1301 889 
Q 1547 409 2034 409 
Q 2525 409 2770 889 
Q 3016 1369 3016 2328 
Q 3016 3291 2770 3770 
Q 2525 4250 2034 4250 
z
M 2034 4750 
Q 2819 4750 3233 4129 
Q 3647 3509 3647 2328 
Q 3647 1150 3233 529 
Q 2819 -91 2034 -91 
Q 1250 -91 836 529 
Q 422 1150 422 2328 
Q 422 3509 836 4129 
Q 1250 4750 2034 4750 
z
" transform="scale(0.015625)"/>
       </defs>
       <use xlink:href="#DejaVuSans-31"/>
       <use xlink:href="#DejaVuSans-30" x="63.623047"/>
      </g>
     </g>
    </g>
    <g id="xtick_6">
     <g id="line2d_6">
      <g>
       <use xlink:href="#ma10d6e7d78" x="701.572658" y="244.096" style="stroke: #000000; stroke-width: 0.8"/>
      </g>
     </g>
     <g id="text_6">
      <!-- 12 -->
      <g transform="translate(695.210158 258.694437)scale(0.1 -0.1)">
       <use xlink:href="#DejaVuSans-31"/>
       <use xlink:href="#DejaVuSans-32" x="63.623047"/>
      </g>
     </g>
    </g>
    <g id="text_7">
     <!-- Mass [M$_\oplus$] -->
     <g transform="translate(341.522682 272.372563)scale(0.1 -0.1)">
      <defs>
       <path id="DejaVuSans-4d" d="M 628 4666 
L 1569 4666 
L 2759 1491 
L 3956 4666 
L 4897 4666 
L 4897 0 
L 4281 0 
L 4281 4097 
L 3078 897 
L 2444 897 
L 1241 4097 
L 1241 0 
L 628 0 
L 628 4666 
z
" transform="scale(0.015625)"/>
       <path id="DejaVuSans-61" d="M 2194 1759 
Q 1497 1759 1228 1600 
Q 959 1441 959 1056 
Q 959 750 1161 570 
Q 1363 391 1709 391 
Q 2188 391 2477 730 
Q 2766 1069 2766 1631 
L 2766 1759 
L 2194 1759 
z
M 3341 1997 
L 3341 0 
L 2766 0 
L 2766 531 
Q 2569 213 2275 61 
Q 1981 -91 1556 -91 
Q 1019 -91 701 211 
Q 384 513 384 1019 
Q 384 1609 779 1909 
Q 1175 2209 1959 2209 
L 2766 2209 
L 2766 2266 
Q 2766 2663 2505 2880 
Q 2244 3097 1772 3097 
Q 1472 3097 1187 3025 
Q 903 2953 641 2809 
L 641 3341 
Q 956 3463 1253 3523 
Q 1550 3584 1831 3584 
Q 2591 3584 2966 3190 
Q 3341 2797 3341 1997 
z
" transform="scale(0.015625)"/>
       <path id="DejaVuSans-73" d="M 2834 3397 
L 2834 2853 
Q 2591 2978 2328 3040 
Q 2066 3103 1784 3103 
Q 1356 3103 1142 2972 
Q 928 2841 928 2578 
Q 928 2378 1081 2264 
Q 1234 2150 1697 2047 
L 1894 2003 
Q 2506 1872 2764 1633 
Q 3022 1394 3022 966 
Q 3022 478 2636 193 
Q 2250 -91 1575 -91 
Q 1294 -91 989 -36 
Q 684 19 347 128 
L 347 722 
Q 666 556 975 473 
Q 1284 391 1588 391 
Q 1994 391 2212 530 
Q 2431 669 2431 922 
Q 2431 1156 2273 1281 
Q 2116 1406 1581 1522 
L 1381 1569 
Q 847 1681 609 1914 
Q 372 2147 372 2553 
Q 372 3047 722 3315 
Q 1072 3584 1716 3584 
Q 2034 3584 2315 3537 
Q 2597 3491 2834 3397 
z
" transform="scale(0.015625)"/>
       <path id="DejaVuSans-20" transform="scale(0.015625)"/>
       <path id="DejaVuSans-5b" d="M 550 4863 
L 1875 4863 
L 1875 4416 
L 1125 4416 
L 1125 -397 
L 1875 -397 
L 1875 -844 
L 550 -844 
L 550 4863 
z
" transform="scale(0.015625)"/>
       <path id="DejaVuSans-2295" d="M 3306 3522 
Q 3016 3644 2681 3644 
Q 2347 3644 2056 3522 
Q 1769 3400 1531 3163 
Q 1291 2922 1172 2634 
Q 1053 2347 1053 2006 
Q 1053 1675 1172 1387 
Q 1291 1100 1531 859 
Q 1769 622 2056 500 
Q 2347 378 2681 378 
Q 3016 378 3306 500 
Q 3594 622 3831 859 
Q 4072 1100 4190 1387 
Q 4309 1675 4309 2006 
Q 4309 2347 4190 2634 
Q 4072 2922 3831 3163 
Q 3594 3400 3306 3522 
z
M 1878 3956 
Q 2250 4113 2681 4113 
Q 3113 4113 3484 3956 
Q 3856 3800 4163 3494 
Q 4472 3184 4625 2813 
Q 4778 2444 4778 2006 
Q 4778 1578 4625 1206 
Q 4472 838 4163 528 
Q 3856 222 3484 65 
Q 3113 -91 2681 -91 
Q 2250 -91 1878 65 
Q 1506 222 1200 528 
Q 891 838 738 1206 
Q 584 1578 584 2006 
Q 584 2444 738 2813 
Q 891 3184 1200 3494 
Q 1506 3800 1878 3956 
z
M 2947 3388 
L 2947 2272 
L 4059 2272 
L 4059 1741 
L 2947 1741 
L 2947 625 
L 2416 625 
L 2416 1741 
L 1303 1741 
L 1303 2272 
L 2416 2272 
L 2416 3388 
L 2947 3388 
z
" transform="scale(0.015625)"/>
       <path id="DejaVuSans-5d" d="M 1947 4863 
L 1947 -844 
L 622 -844 
L 622 -397 
L 1369 -397 
L 1369 4416 
L 622 4416 
L 622 4863 
L 1947 4863 
z
" transform="scale(0.015625)"/>
      </defs>
      <use xlink:href="#DejaVuSans-4d" transform="translate(0 0.015625)"/>
      <use xlink:href="#DejaVuSans-61" transform="translate(86.279297 0.015625)"/>
      <use xlink:href="#DejaVuSans-73" transform="translate(147.558594 0.015625)"/>
      <use xlink:href="#DejaVuSans-73" transform="translate(199.658203 0.015625)"/>
      <use xlink:href="#DejaVuSans-20" transform="translate(251.757812 0.015625)"/>
      <use xlink:href="#DejaVuSans-5b" transform="translate(283.544922 0.015625)"/>
      <use xlink:href="#DejaVuSans-4d" transform="translate(322.558594 0.015625)"/>
      <use xlink:href="#DejaVuSans-2295" transform="translate(423.432617 -16.390625)scale(0.7)"/>
      <use xlink:href="#DejaVuSans-5d" transform="translate(498.457031 0.015625)"/>
     </g>
    </g>
   </g>
   <g id="matplotlib.axis_2">
    <g id="text_8">
     <!-- Posterior probability -->
     <g transform="translate(18.800312 177.806594)rotate(-90)scale(0.1 -0.1)">
      <defs>
       <path id="DejaVuSans-50" d="M 1259 4147 
L 1259 2394 
L 2053 2394 
Q 2494 2394 2734 2622 
Q 2975 2850 2975 3272 
Q 2975 3691 2734 3919 
Q 2494 4147 2053 4147 
L 1259 4147 
z
M 628 4666 
L 2053 4666 
Q 2838 4666 3239 4311 
Q 3641 3956 3641 3272 
Q 3641 2581 3239 2228 
Q 2838 1875 2053 1875 
L 1259 1875 
L 1259 0 
L 628 0 
L 628 4666 
z
" transform="scale(0.015625)"/>
       <path id="DejaVuSans-6f" d="M 1959 3097 
Q 1497 3097 1228 2736 
Q 959 2375 959 1747 
Q 959 1119 1226 758 
Q 1494 397 1959 397 
Q 2419 397 2687 759 
Q 2956 1122 2956 1747 
Q 2956 2369 2687 2733 
Q 2419 3097 1959 3097 
z
M 1959 3584 
Q 2709 3584 3137 3096 
Q 3566 2609 3566 1747 
Q 3566 888 3137 398 
Q 2709 -91 1959 -91 
Q 1206 -91 779 398 
Q 353 888 353 1747 
Q 353 2609 779 3096 
Q 1206 3584 1959 3584 
z
" transform="scale(0.015625)"/>
       <path id="DejaVuSans-74" d="M 1172 4494 
L 1172 3500 
L 2356 3500 
L 2356 3053 
L 1172 3053 
L 1172 1153 
Q 1172 725 1289 603 
Q 1406 481 1766 481 
L 2356 481 
L 2356 0 
L 1766 0 
Q 1100 0 847 248 
Q 594 497 594 1153 
L 594 3053 
L 172 3053 
L 172 3500 
L 594 3500 
L 594 4494 
L 1172 4494 
z
" transform="scale(0.015625)"/>
       <path id="DejaVuSans-65" d="M 3597 1894 
L 3597 1613 
L 953 1613 
Q 991 1019 1311 708 
Q 1631 397 2203 397 
Q 2534 397 2845 478 
Q 3156 559 3463 722 
L 3463 178 
Q 3153 47 2828 -22 
Q 2503 -91 2169 -91 
Q 1331 -91 842 396 
Q 353 884 353 1716 
Q 353 2575 817 3079 
Q 1281 3584 2069 3584 
Q 2775 3584 3186 3129 
Q 3597 2675 3597 1894 
z
M 3022 2063 
Q 3016 2534 2758 2815 
Q 2500 3097 2075 3097 
Q 1594 3097 1305 2825 
Q 1016 2553 972 2059 
L 3022 2063 
z
" transform="scale(0.015625)"/>
       <path id="DejaVuSans-72" d="M 2631 2963 
Q 2534 3019 2420 3045 
Q 2306 3072 2169 3072 
Q 1681 3072 1420 2755 
Q 1159 2438 1159 1844 
L 1159 0 
L 581 0 
L 581 3500 
L 1159 3500 
L 1159 2956 
Q 1341 3275 1631 3429 
Q 1922 3584 2338 3584 
Q 2397 3584 2469 3576 
Q 2541 3569 2628 3553 
L 2631 2963 
z
" transform="scale(0.015625)"/>
       <path id="DejaVuSans-69" d="M 603 3500 
L 1178 3500 
L 1178 0 
L 603 0 
L 603 3500 
z
M 603 4863 
L 1178 4863 
L 1178 4134 
L 603 4134 
L 603 4863 
z
" transform="scale(0.015625)"/>
       <path id="DejaVuSans-70" d="M 1159 525 
L 1159 -1331 
L 581 -1331 
L 581 3500 
L 1159 3500 
L 1159 2969 
Q 1341 3281 1617 3432 
Q 1894 3584 2278 3584 
Q 2916 3584 3314 3078 
Q 3713 2572 3713 1747 
Q 3713 922 3314 415 
Q 2916 -91 2278 -91 
Q 1894 -91 1617 61 
Q 1341 213 1159 525 
z
M 3116 1747 
Q 3116 2381 2855 2742 
Q 2594 3103 2138 3103 
Q 1681 3103 1420 2742 
Q 1159 2381 1159 1747 
Q 1159 1113 1420 752 
Q 1681 391 2138 391 
Q 2594 391 2855 752 
Q 3116 1113 3116 1747 
z
" transform="scale(0.015625)"/>
       <path id="DejaVuSans-62" d="M 3116 1747 
Q 3116 2381 2855 2742 
Q 2594 3103 2138 3103 
Q 1681 3103 1420 2742 
Q 1159 2381 1159 1747 
Q 1159 1113 1420 752 
Q 1681 391 2138 391 
Q 2594 391 2855 752 
Q 3116 1113 3116 1747 
z
M 1159 2969 
Q 1341 3281 1617 3432 
Q 1894 3584 2278 3584 
Q 2916 3584 3314 3078 
Q 3713 2572 3713 1747 
Q 3713 922 3314 415 
Q 2916 -91 2278 -91 
Q 1894 -91 1617 61 
Q 1341 213 1159 525 
L 1159 0 
L 581 0 
L 581 4863 
L 1159 4863 
L 1159 2969 
z
" transform="scale(0.015625)"/>
       <path id="DejaVuSans-6c" d="M 603 4863 
L 1178 4863 
L 1178 0 
L 603 0 
L 603 4863 
z
" transform="scale(0.015625)"/>
       <path id="DejaVuSans-79" d="M 2059 -325 
Q 1816 -950 1584 -1140 
Q 1353 -1331 966 -1331 
L 506 -1331 
L 506 -850 
L 844 -850 
Q 1081 -850 1212 -737 
Q 1344 -625 1503 -206 
L 1606 56 
L 191 3500 
L 800 3500 
L 1894 763 
L 2988 3500 
L 3597 3500 
L 2059 -325 
z
" transform="scale(0.015625)"/>
      </defs>
      <use xlink:href="#DejaVuSans-50"/>
      <use xlink:href="#DejaVuSans-6f" x="56.677734"/>
      <use xlink:href="#DejaVuSans-73" x="117.859375"/>
      <use xlink:href="#DejaVuSans-74" x="169.958984"/>
      <use xlink:href="#DejaVuSans-65" x="209.167969"/>
      <use xlink:href="#DejaVuSans-72" x="270.691406"/>
      <use xlink:href="#DejaVuSans-69" x="311.804688"/>
      <use xlink:href="#DejaVuSans-6f" x="339.587891"/>
      <use xlink:href="#DejaVuSans-72" x="400.769531"/>
      <use xlink:href="#DejaVuSans-20" x="441.882812"/>
      <use xlink:href="#DejaVuSans-70" x="473.669922"/>
      <use xlink:href="#DejaVuSans-72" x="537.146484"/>
      <use xlink:href="#DejaVuSans-6f" x="576.009766"/>
      <use xlink:href="#DejaVuSans-62" x="637.191406"/>
      <use xlink:href="#DejaVuSans-61" x="700.667969"/>
      <use xlink:href="#DejaVuSans-62" x="761.947266"/>
      <use xlink:href="#DejaVuSans-69" x="825.423828"/>
      <use xlink:href="#DejaVuSans-6c" x="853.207031"/>
      <use xlink:href="#DejaVuSans-69" x="880.990234"/>
      <use xlink:href="#DejaVuSans-74" x="908.773438"/>
      <use xlink:href="#DejaVuSans-79" x="947.982422"/>
     </g>
    </g>
   </g>
   <g id="line2d_7">
    <path d="M -1 235.46619 
L 5.13912 234.761716 
L 11.776347 233.797175 
L 18.413574 232.592741 
L 25.050801 231.108733 
L 29.47562 229.938705 
L 33.900438 228.60117 
L 38.325256 227.071563 
L 42.750074 225.320794 
L 47.174892 223.315879 
L 51.59971 221.021588 
L 56.024529 218.403218 
L 60.449347 215.430175 
L 64.874165 212.0794 
L 69.298983 208.336872 
L 73.723801 204.194926 
L 78.148619 199.64353 
L 82.573438 194.655586 
L 86.998256 189.169809 
L 91.423074 183.079233 
L 93.635483 179.762086 
L 95.847892 176.236937 
L 98.060301 172.484782 
L 100.27271 168.490156 
L 102.485119 164.243714 
L 106.909938 155.003114 
L 111.334756 144.888353 
L 117.971983 128.723587 
L 126.821619 107.004475 
L 131.246438 96.60352 
L 135.671256 86.866755 
L 137.883665 82.350994 
L 140.096074 78.104885 
L 144.520892 70.366839 
L 151.158119 59.761458 
L 162.220165 41.980148 
L 164.432574 38.740832 
L 166.644983 35.814799 
L 168.857392 33.2923 
L 171.069801 31.250374 
L 173.28221 29.743033 
L 175.494619 28.789198 
L 177.707028 28.362625 
L 179.919437 28.389781 
L 182.131847 28.759707 
L 186.556665 30.026848 
L 193.193892 32.004616 
L 197.61871 33.359598 
L 199.831119 34.241636 
L 202.043528 35.379197 
L 204.255937 36.856418 
L 206.468347 38.738967 
L 208.680756 41.06275 
L 210.893165 43.825317 
L 213.105574 46.98231 
L 217.530392 54.119869 
L 224.167619 65.172014 
L 228.592437 71.829724 
L 233.017256 77.881995 
L 241.866892 89.632933 
L 255.141346 107.748158 
L 259.566165 113.233359 
L 263.990983 118.17239 
L 268.415801 122.540275 
L 272.840619 126.447869 
L 281.690255 133.70576 
L 297.177119 146.252277 
L 301.601937 149.508457 
L 306.026755 152.46589 
L 310.451574 155.060049 
L 314.876392 157.243835 
L 319.30121 158.995967 
L 323.726028 160.328875 
L 328.150846 161.295157 
L 332.575664 161.990081 
L 345.850119 163.784088 
L 350.274937 164.657484 
L 356.912164 166.274495 
L 363.549392 167.946284 
L 367.97421 168.868723 
L 372.399028 169.514987 
L 376.823846 169.840114 
L 381.248664 169.863596 
L 387.885892 169.528923 
L 394.523119 169.175087 
L 398.947937 169.168132 
L 403.372755 169.449468 
L 407.797573 170.034922 
L 412.222392 170.887373 
L 416.64721 171.949754 
L 423.284437 173.846799 
L 429.921664 176.07672 
L 436.558892 178.629156 
L 458.682982 187.615198 
L 467.532619 190.737439 
L 476.382255 193.612856 
L 485.231891 196.217196 
L 491.869119 197.949707 
L 498.506346 199.493186 
L 507.355982 201.326336 
L 531.692482 206.148953 
L 540.542119 208.220307 
L 549.391755 210.579553 
L 562.66621 214.452725 
L 573.728255 217.578841 
L 582.577891 219.812324 
L 591.427528 221.787962 
L 602.489573 223.981565 
L 615.764028 226.368606 
L 633.4633 229.308494 
L 648.950164 231.6663 
L 662.224618 233.475961 
L 675.499073 235.050501 
L 688.773527 236.386348 
L 702.047982 237.511606 
L 717.534846 238.611197 
L 721 238.830692 
L 721 238.830692 
" clip-path="url(#p8c4de7d7e5)" style="fill: none; stroke: #000000; stroke-width: 1.5; stroke-linecap: square"/>
   </g>
   <g id="line2d_8">
    <path d="M -1 236.364944 
L 5.13912 235.232248 
L 11.776347 233.800483 
L 18.413574 232.119011 
L 25.050801 230.144693 
L 29.47562 228.641618 
L 33.900438 226.970202 
L 38.325256 225.112747 
L 42.750074 223.050185 
L 47.174892 220.762108 
L 51.59971 218.226843 
L 56.024529 215.421595 
L 60.449347 212.322643 
L 64.874165 208.905636 
L 69.298983 205.145979 
L 73.723801 201.019333 
L 78.148619 196.502244 
L 82.573438 191.572908 
L 86.998256 186.212086 
L 91.423074 180.404157 
L 95.847892 174.138327 
L 100.27271 167.40995 
L 104.697529 160.221956 
L 109.122347 152.586318 
L 113.547165 144.525528 
L 117.971983 136.073969 
L 124.60921 122.771611 
L 131.246438 108.920028 
L 146.733301 76.239461 
L 151.158119 67.337646 
L 155.582938 58.873583 
L 160.007756 50.98664 
L 164.432574 43.813629 
L 166.644983 40.535722 
L 168.857392 37.483994 
L 171.069801 34.672666 
L 173.28221 32.114895 
L 175.494619 29.822634 
L 177.707028 27.806503 
L 179.919437 26.075675 
L 182.131847 24.637773 
L 184.344256 23.498783 
L 186.556665 22.66299 
L 188.769074 22.132924 
L 190.981483 21.909333 
L 193.193892 21.991174 
L 195.406301 22.375623 
L 197.61871 23.058106 
L 199.831119 24.032352 
L 202.043528 25.290462 
L 204.255937 26.822995 
L 206.468347 28.619075 
L 208.680756 30.666503 
L 210.893165 32.951891 
L 213.105574 35.460801 
L 215.317983 38.177888 
L 219.742801 44.171612 
L 224.167619 50.798055 
L 228.592437 57.917567 
L 235.229665 69.217002 
L 252.928937 99.98011 
L 257.353756 107.247226 
L 261.778574 114.187876 
L 266.203392 120.749193 
L 270.62821 126.892181 
L 275.053028 132.590647 
L 279.477846 137.829893 
L 283.902665 142.605287 
L 288.327483 146.920782 
L 292.752301 150.78746 
L 297.177119 154.22215 
L 301.601937 157.246154 
L 306.026755 159.884106 
L 310.451574 162.162973 
L 314.876392 164.111201 
L 319.30121 165.757995 
L 323.726028 167.132732 
L 328.150846 168.264486 
L 332.575664 169.181662 
L 337.000483 169.911708 
L 343.63771 170.713046 
L 350.274937 171.235224 
L 359.124574 171.627035 
L 370.186619 171.846121 
L 390.098301 172.21619 
L 398.947937 172.597768 
L 407.797573 173.204349 
L 416.64721 174.075677 
L 425.496846 175.234685 
L 434.346482 176.689294 
L 443.196119 178.434337 
L 452.045755 180.453589 
L 460.895392 182.721871 
L 469.745028 185.207173 
L 480.807073 188.562687 
L 494.081528 192.851649 
L 518.418028 201.032562 
L 536.1173 206.888691 
L 549.391755 211.073344 
L 562.66621 215.004797 
L 573.728255 218.054973 
L 584.7903 220.882901 
L 595.852346 223.481477 
L 606.914391 225.850372 
L 617.976437 227.994656 
L 629.038482 229.923479 
L 640.100528 231.648894 
L 653.374982 233.470596 
L 666.649437 235.045442 
L 679.923891 236.399911 
L 695.410755 237.736001 
L 710.897618 238.845781 
L 721 239.464124 
L 721 239.464124 
" clip-path="url(#p8c4de7d7e5)" style="fill: none; stroke-dasharray: 5.55,2.4; stroke-dashoffset: 0; stroke: #000000; stroke-width: 1.5"/>
   </g>
   <g id="line2d_9">
    <path d="M 188.702568 244.096 
L 188.702568 10.8 
" clip-path="url(#p8c4de7d7e5)" style="fill: none; stroke-dasharray: 5.55,2.4; stroke-dashoffset: 0; stroke: #000000; stroke-width: 1.5"/>
   </g>
   <g id="line2d_10">
    <path d="M 405.855948 244.096 
L 405.855948 10.8 
" clip-path="url(#p8c4de7d7e5)" style="fill: none; stroke-dasharray: 5.55,2.4; stroke-dashoffset: 0; stroke: #000000; stroke-width: 1.5"/>
   </g>
   <g id="patch_3">
    <path d="M 28.38 244.096 
L 28.38 10.8 
" style="fill: none; stroke: #000000; stroke-width: 0.8; stroke-linejoin: miter; stroke-linecap: square"/>
   </g>
   <g id="patch_4">
    <path d="M 708.465363 244.096 
L 708.465363 10.8 
" style="fill: none; stroke: #000000; stroke-width: 0.8; stroke-linejoin: miter; stroke-linecap: square"/>
   </g>
   <g id="patch_5">
    <path d="M 28.38 244.096 
L 708.465363 244.096 
" style="fill: none; stroke: #000000; stroke-width: 0.8; stroke-linejoin: miter; stroke-linecap: square"/>
   </g>
   <g id="patch_6">
    <path d="M 28.38 10.8 
L 708.465363 10.8 
" style="fill: none; stroke: #000000; stroke-width: 0.8; stroke-linejoin: miter; stroke-linecap: square"/>
   </g>
  </g>
 </g>
 <defs>
  <clipPath id="p8c4de7d7e5">
   <rect x="28.38" y="10.8" width="680.085363" height="233.296"/>
  </clipPath>
 </defs>
</svg>
