<?xml version="1.0" encoding="utf-8" standalone="no"?>
<!DOCTYPE svg PUBLIC "-//W3C//DTD SVG 1.1//EN"
  "http://www.w3.org/Graphics/SVG/1.1/DTD/svg11.dtd">
<svg xmlns:xlink="http://www.w3.org/1999/xlink" width="720pt" height="288pt" viewBox="0 0 720 288" xmlns="http://www.w3.org/2000/svg" version="1.1">
 <metadata>
  <rdf:RDF xmlns:dc="http://purl.org/dc/elements/1.1/" xmlns:cc="http://creativecommons.org/ns#" xmlns:rdf="http://www.w3.org/1999/02/22-rdf-syntax-ns#">
   <cc:Work>
    <dc:type rdf:resource="http://purl.org/dc/dcmitype/StillImage"/>
    <dc:date>2023-06-27T22:21:55.405033</dc:date>
    <dc:format>image/svg+xml</dc:format>
    <dc:creator>
     <cc:Agent>
      <dc:title>Matplotlib v3.5.2, https://matplotlib.org/</dc:title>
     </cc:Agent>
    </dc:creator>
   </cc:Work>
  </rdf:RDF>
 </metadata>
 <defs>
  <style type="text/css">*{stroke-linejoin: round; stroke-linecap: butt}</style>
 </defs>
 <g id="figure_1">
  <g id="patch_1">
   <path d="M 0 288 
L 720 288 
L 720 0 
L 0 0 
z
" style="fill: #ffffff"/>
  </g>
  <g id="axes_1">
   <g id="patch_2">
    <path d="M 28.38 246.04 
L 709.2 246.04 
L 709.2 10.8 
L 28.38 10.8 
z
" style="fill: #ffffff"/>
   </g>
   <g id="PolyCollection_1">
    <path d="M -22.183451 246.04 
L -22.183451 236.279043 
L -20.127785 236.270723 
L -18.072119 236.253989 
L -16.016453 236.228641 
L -13.960787 236.194387 
L -11.905121 236.150833 
L -9.849455 236.097489 
L -7.793789 236.033766 
L -5.738122 235.958979 
L -3.682456 235.872346 
L -1.62679 235.772985 
L 0.428876 235.659918 
L 2.484542 235.532069 
L 4.540208 235.388261 
L 6.595874 235.227217 
L 8.65154 235.047559 
L 10.707207 234.847809 
L 12.762873 234.62638 
L 14.818539 234.381588 
L 16.874205 234.111639 
L 18.929871 233.814643 
L 20.985537 233.488604 
L 23.041203 233.131435 
L 25.096869 232.740957 
L 27.152536 232.314911 
L 29.208202 231.850968 
L 31.263868 231.346739 
L 33.319534 230.799798 
L 35.3752 230.20769 
L 37.430866 229.567954 
L 39.486532 228.87814 
L 41.542198 228.135823 
L 43.597865 227.338618 
L 45.653531 226.484191 
L 47.709197 225.570257 
L 49.764863 224.594581 
L 51.820529 223.55496 
L 53.876195 222.449206 
L 55.931861 221.27511 
L 57.987527 220.030409 
L 60.043194 218.712732 
L 62.09886 217.319559 
L 64.154526 215.848165 
L 66.210192 214.295576 
L 68.265858 212.658534 
L 70.321524 210.933475 
L 72.37719 209.116522 
L 74.432857 207.203512 
L 76.488523 205.19003 
L 78.544189 203.071476 
L 80.599855 200.843138 
L 82.655521 198.500269 
L 84.711187 196.038166 
L 86.766853 193.452212 
L 88.822519 190.737907 
L 90.878186 187.890861 
L 92.933852 184.906766 
L 94.989518 181.781375 
L 97.045184 178.510512 
L 99.10085 175.090142 
L 101.156516 171.516552 
L 103.212182 167.786636 
L 105.267848 163.898288 
L 107.323515 159.850851 
L 109.379181 155.645558 
L 111.434847 151.285865 
L 113.490513 146.7776 
L 115.546179 142.128844 
L 117.601845 137.349569 
L 119.657511 132.451063 
L 121.713177 127.445286 
L 123.768844 122.344337 
L 125.82451 117.160231 
L 127.880176 111.90514 
L 129.935842 106.5922 
L 131.991508 101.236797 
L 134.047174 95.85813 
L 136.10284 90.480655 
L 138.158506 85.134906 
L 140.214173 79.857201 
L 142.269839 74.687921 
L 144.325505 69.668344 
L 146.381171 64.836506 
L 148.436837 60.222966 
L 150.492503 55.847607 
L 152.548169 51.718527 
L 154.603835 47.833592 
L 156.659502 44.184493 
L 158.715168 40.762317 
L 160.770834 37.563147 
L 162.8265 34.592125 
L 164.882166 31.86496 
L 166.937832 29.406691 
L 168.993498 27.248432 
L 171.049164 25.423287 
L 173.104831 23.962611 
L 175.160497 22.893229 
L 177.216163 22.235533 
L 179.271829 22.001905 
L 181.327495 22.194908 
L 183.383161 22.805236 
L 185.438827 23.810034 
L 187.494494 25.172657 
L 189.55016 26.844746 
L 191.605826 28.770744 
L 193.661492 30.893963 
L 195.717158 33.162485 
L 197.772824 35.533105 
L 199.82849 37.972152 
L 201.884156 40.45329 
L 203.939823 42.953586 
L 205.995489 45.449852 
L 208.051155 47.917059 
L 210.106821 50.329714 
L 212.162487 52.665755 
L 214.218153 54.911395 
L 216.273819 57.064911 
L 218.329485 59.13771 
L 220.385152 61.152045 
L 222.440818 63.135994 
L 224.496484 65.11731 
L 226.55215 67.118114 
L 228.607816 69.152079 
L 230.663482 71.224816 
L 232.719148 73.337105 
L 234.774814 75.489681 
L 236.830481 77.687852 
L 238.886147 79.944386 
L 240.941813 82.279695 
L 242.997479 84.719218 
L 245.053145 87.288714 
L 247.108811 90.008679 
L 249.164477 92.889255 
L 251.220143 95.926768 
L 253.27581 99.102511 
L 255.331476 102.383869 
L 257.387142 105.727357 
L 259.442808 109.08286 
L 261.498474 112.398266 
L 263.55414 115.623792 
L 265.609806 118.71549 
L 267.665472 121.637709 
L 269.721139 124.364469 
L 271.776805 126.879888 
L 273.832471 129.177864 
L 275.888137 131.261224 
L 277.943803 133.140532 
L 279.999469 134.832707 
L 282.055135 136.359539 
L 284.110801 137.746178 
L 286.166468 139.019641 
L 288.222134 140.207382 
L 290.2778 141.335962 
L 292.333466 142.429864 
L 294.389132 143.510503 
L 296.444798 144.595447 
L 298.500464 145.697905 
L 300.55613 146.82647 
L 302.611797 147.985133 
L 304.667463 149.173536 
L 306.723129 150.387432 
L 308.778795 151.619316 
L 310.834461 152.859158 
L 312.890127 154.095207 
L 314.945793 155.314793 
L 317.00146 156.505105 
L 319.057126 157.653901 
L 321.112792 158.750113 
L 323.168458 159.784344 
L 325.224124 160.749232 
L 327.27979 161.639679 
L 329.335456 162.452945 
L 331.391122 163.1886 
L 333.446789 163.848372 
L 335.502455 164.435872 
L 337.558121 164.956243 
L 339.613787 165.415754 
L 341.669453 165.821356 
L 343.725119 166.180244 
L 345.780785 166.499455 
L 347.836451 166.785524 
L 349.892118 167.044218 
L 351.947784 167.280381 
L 354.00345 167.497879 
L 356.059116 167.699647 
L 358.114782 167.88783 
L 360.170448 168.063997 
L 362.226114 168.229386 
L 364.28178 168.385171 
L 366.337447 168.532696 
L 368.393113 168.673669 
L 370.448779 168.810286 
L 372.504445 168.945277 
L 374.560111 169.081875 
L 376.615777 169.223722 
L 378.671443 169.374728 
L 380.727109 169.538915 
L 382.782776 169.720255 
L 384.838442 169.922546 
L 386.894108 170.149325 
L 388.949774 170.403824 
L 391.00544 170.688973 
L 393.061106 171.007434 
L 395.116772 171.361636 
L 397.172438 171.7538 
L 399.228105 172.185934 
L 401.283771 172.659771 
L 403.339437 173.17666 
L 405.395103 173.737398 
L 407.450769 174.342032 
L 409.506435 174.989653 
L 411.562101 175.678203 
L 413.617767 176.404335 
L 415.673434 177.163345 
L 417.7291 177.949213 
L 419.784766 178.754742 
L 421.840432 179.57181 
L 423.896098 180.391717 
L 425.951764 181.2056 
L 428.00743 182.004891 
L 430.063096 182.781779 
L 432.118763 183.529631 
L 434.174429 184.243351 
L 436.230095 184.919645 
L 438.285761 185.557159 
L 440.341427 186.156509 
L 442.397093 186.720168 
L 444.452759 187.252254 
L 446.508426 187.758221 
L 448.564092 188.244478 
L 450.619758 188.717972 
L 452.675424 189.18577 
L 454.73109 189.654653 
L 456.786756 190.130763 
L 458.842422 190.619322 
L 460.898088 191.124423 
L 462.953755 191.64892 
L 465.009421 192.194394 
L 467.065087 192.761216 
L 469.120753 193.348656 
L 471.176419 193.955071 
L 473.232085 194.578105 
L 475.287751 195.214918 
L 477.343417 195.862415 
L 479.399084 196.517451 
L 481.45475 197.177015 
L 483.510416 197.838373 
L 485.566082 198.499175 
L 487.621748 199.157513 
L 489.677414 199.811945 
L 491.73308 200.461478 
L 493.788746 201.105524 
L 495.844413 201.743837 
L 497.900079 202.376432 
L 499.955745 203.003503 
L 502.011411 203.625339 
L 504.067077 204.242246 
L 506.122743 204.854485 
L 508.178409 205.462226 
L 510.234075 206.065508 
L 512.289742 206.664225 
L 514.345408 207.258128 
L 516.401074 207.846828 
L 518.45674 208.429826 
L 520.512406 209.006539 
L 522.568072 209.576329 
L 524.623738 210.138547 
L 526.679404 210.692559 
L 528.735071 211.237778 
L 530.790737 211.773688 
L 532.846403 212.299863 
L 534.902069 212.815979 
L 536.957735 213.321816 
L 539.013401 213.817259 
L 541.069067 214.302291 
L 543.124733 214.776986 
L 545.1804 215.241494 
L 547.236066 215.696027 
L 549.291732 216.140853 
L 551.347398 216.576276 
L 553.403064 217.002634 
L 555.45873 217.420289 
L 557.514396 217.829621 
L 559.570062 218.231033 
L 561.625729 218.624945 
L 563.681395 219.0118 
L 565.737061 219.392064 
L 567.792727 219.766235 
L 569.848393 220.13484 
L 571.904059 220.498436 
L 573.959725 220.857617 
L 576.015392 221.213001 
L 578.071058 221.565233 
L 580.126724 221.914973 
L 582.18239 222.262888 
L 584.238056 222.609641 
L 586.293722 222.955874 
L 588.349388 223.3022 
L 590.405054 223.649181 
L 592.460721 223.997322 
L 594.516387 224.347053 
L 596.572053 224.698719 
L 598.627719 225.052571 
L 600.683385 225.408758 
L 602.739051 225.767326 
L 604.794717 226.128215 
L 606.850383 226.491261 
L 608.90605 226.856198 
L 610.961716 227.222673 
L 613.017382 227.590245 
L 615.073048 227.958407 
L 617.128714 228.32659 
L 619.18438 228.694183 
L 621.240046 229.060545 
L 623.295712 229.425018 
L 625.351379 229.786944 
L 627.407045 230.145677 
L 629.462711 230.500596 
L 631.518377 230.851114 
L 633.574043 231.196688 
L 635.629709 231.53683 
L 637.685375 231.871106 
L 639.741041 232.199146 
L 641.796708 232.520643 
L 643.852374 232.835354 
L 645.90804 233.143099 
L 647.963706 233.443761 
L 650.019372 233.737277 
L 652.075038 234.023639 
L 654.130704 234.302888 
L 656.18637 234.575104 
L 658.242037 234.840406 
L 660.297703 235.098941 
L 662.353369 235.350881 
L 664.409035 235.596417 
L 666.464701 235.835751 
L 668.520367 236.069095 
L 670.576033 236.296665 
L 672.631699 236.518673 
L 674.687366 236.735331 
L 676.743032 236.946842 
L 678.798698 237.153402 
L 680.854364 237.355197 
L 682.91003 237.5524 
L 684.965696 237.745173 
L 687.021362 237.933666 
L 689.077029 238.118018 
L 691.132695 238.298355 
L 693.188361 238.474792 
L 695.244027 238.647434 
L 697.299693 238.81638 
L 699.355359 238.981715 
L 701.411025 239.143523 
L 703.466691 239.301878 
L 705.522358 239.456851 
L 707.578024 239.608508 
L 709.63369 239.756912 
L 711.689356 239.902124 
L 713.745022 240.044202 
L 715.800688 240.183203 
L 717.856354 240.319186 
L 719.91202 240.452205 
L 721.967687 240.582318 
L 724.023353 240.70958 
L 726.079019 240.834047 
L 728.134685 240.955776 
L 730.190351 241.074823 
L 732.246017 241.191245 
L 734.301683 241.305097 
L 736.357349 241.416435 
L 738.413016 241.525315 
L 740.468682 241.631791 
L 742.524348 241.735918 
L 744.580014 241.837748 
L 746.63568 241.937334 
L 748.691346 242.034726 
L 750.747012 242.129974 
L 752.802678 242.223125 
L 754.858345 242.314226 
L 756.914011 242.403322 
L 758.969677 242.490454 
L 761.025343 242.575665 
L 763.081009 242.658994 
L 765.136675 242.740479 
L 767.192341 242.820156 
L 769.248007 242.898059 
L 771.303674 242.974222 
L 773.35934 243.048675 
L 775.415006 243.12145 
L 777.470672 243.192575 
L 779.526338 243.262077 
L 781.582004 243.329982 
L 783.63767 243.396317 
L 785.693336 243.461105 
L 787.749003 243.52437 
L 789.804669 243.586136 
L 791.860335 243.646424 
L 793.916001 243.705257 
L 795.971667 243.762655 
L 798.027333 243.81864 
L 800.082999 243.873233 
L 802.138665 243.926454 
L 804.194332 243.978324 
L 806.249998 244.028864 
L 808.305664 244.078093 
L 810.36133 244.126032 
L 812.416996 244.172702 
L 814.472662 244.218124 
L 816.528328 244.262319 
L 818.583995 244.305308 
L 820.639661 244.347112 
L 822.695327 244.387752 
L 824.750993 244.427251 
L 826.806659 244.465631 
L 828.862325 244.502913 
L 830.917991 244.539121 
L 832.973657 244.574276 
L 835.029324 244.608402 
L 837.08499 244.641521 
L 839.140656 244.673657 
L 841.196322 244.704833 
L 843.251988 244.735071 
L 845.307654 244.764396 
L 847.36332 244.792831 
L 849.418986 244.820398 
L 851.474653 244.847121 
L 853.530319 244.873024 
L 855.585985 244.898128 
L 857.641651 244.922458 
L 859.697317 244.946035 
L 861.752983 244.968883 
L 863.808649 244.991023 
L 865.864315 245.012476 
L 867.919982 245.033265 
L 869.975648 245.053411 
L 872.031314 245.072935 
L 874.08698 245.091856 
L 876.142646 245.110195 
L 878.198312 245.127971 
L 880.253978 245.145204 
L 882.309644 245.161911 
L 884.365311 245.178111 
L 886.420977 245.193822 
L 888.476643 245.20906 
L 890.532309 245.223841 
L 892.587975 245.238183 
L 894.643641 245.252099 
L 896.699307 245.265606 
L 898.754973 245.278717 
L 900.81064 245.291446 
L 902.866306 245.303806 
L 904.921972 245.31581 
L 906.977638 245.32747 
L 909.033304 245.338798 
L 911.08897 245.349805 
L 913.144636 245.360501 
L 915.200302 245.370898 
L 917.255969 245.381003 
L 919.311635 245.390828 
L 921.367301 245.40038 
L 923.422967 245.409668 
L 925.478633 245.418699 
L 927.534299 245.427483 
L 929.589965 245.436024 
L 931.645631 245.444332 
L 933.701298 245.452411 
L 935.756964 245.460268 
L 937.81263 245.467909 
L 939.868296 245.47534 
L 941.923962 245.482565 
L 943.979628 245.48959 
L 946.035294 245.496419 
L 948.090961 245.503057 
L 950.146627 245.509508 
L 952.202293 245.515776 
L 954.257959 245.521865 
L 956.313625 245.527778 
L 958.369291 245.53352 
L 960.424957 245.539093 
L 962.480623 245.5445 
L 964.53629 245.549745 
L 966.591956 245.55483 
L 968.647622 245.559759 
L 970.703288 245.564534 
L 972.758954 245.569156 
L 974.81462 245.57363 
L 976.870286 245.577958 
L 978.925952 245.58214 
L 980.981619 245.586181 
L 983.037285 245.590082 
L 985.092951 245.593845 
L 987.148617 245.597472 
L 989.204283 245.600965 
L 991.259949 245.604327 
L 993.315615 245.607559 
L 995.371281 245.610663 
L 997.426948 245.613641 
L 999.482614 245.616495 
L 1001.53828 245.619227 
L 1003.593946 245.621839 
L 1005.649612 245.624332 
L 1007.705278 245.626708 
L 1009.760944 245.62897 
L 1011.81661 245.631118 
L 1013.872277 245.633155 
L 1015.927943 245.635082 
L 1017.983609 245.636902 
L 1020.039275 245.638616 
L 1022.094941 245.640225 
L 1024.150607 245.641733 
L 1026.206273 245.64314 
L 1028.261939 245.644448 
L 1028.261939 246.04 
L 1028.261939 246.04 
L 1026.206273 246.04 
L 1024.150607 246.04 
L 1022.094941 246.04 
L 1020.039275 246.04 
L 1017.983609 246.04 
L 1015.927943 246.04 
L 1013.872277 246.04 
L 1011.81661 246.04 
L 1009.760944 246.04 
L 1007.705278 246.04 
L 1005.649612 246.04 
L 1003.593946 246.04 
L 1001.53828 246.04 
L 999.482614 246.04 
L 997.426948 246.04 
L 995.371281 246.04 
L 993.315615 246.04 
L 991.259949 246.04 
L 989.204283 246.04 
L 987.148617 246.04 
L 985.092951 246.04 
L 983.037285 246.04 
L 980.981619 246.04 
L 978.925952 246.04 
L 976.870286 246.04 
L 974.81462 246.04 
L 972.758954 246.04 
L 970.703288 246.04 
L 968.647622 246.04 
L 966.591956 246.04 
L 964.53629 246.04 
L 962.480623 246.04 
L 960.424957 246.04 
L 958.369291 246.04 
L 956.313625 246.04 
L 954.257959 246.04 
L 952.202293 246.04 
L 950.146627 246.04 
L 948.090961 246.04 
L 946.035294 246.04 
L 943.979628 246.04 
L 941.923962 246.04 
L 939.868296 246.04 
L 937.81263 246.04 
L 935.756964 246.04 
L 933.701298 246.04 
L 931.645631 246.04 
L 929.589965 246.04 
L 927.534299 246.04 
L 925.478633 246.04 
L 923.422967 246.04 
L 921.367301 246.04 
L 919.311635 246.04 
L 917.255969 246.04 
L 915.200302 246.04 
L 913.144636 246.04 
L 911.08897 246.04 
L 909.033304 246.04 
L 906.977638 246.04 
L 904.921972 246.04 
L 902.866306 246.04 
L 900.81064 246.04 
L 898.754973 246.04 
L 896.699307 246.04 
L 894.643641 246.04 
L 892.587975 246.04 
L 890.532309 246.04 
L 888.476643 246.04 
L 886.420977 246.04 
L 884.365311 246.04 
L 882.309644 246.04 
L 880.253978 246.04 
L 878.198312 246.04 
L 876.142646 246.04 
L 874.08698 246.04 
L 872.031314 246.04 
L 869.975648 246.04 
L 867.919982 246.04 
L 865.864315 246.04 
L 863.808649 246.04 
L 861.752983 246.04 
L 859.697317 246.04 
L 857.641651 246.04 
L 855.585985 246.04 
L 853.530319 246.04 
L 851.474653 246.04 
L 849.418986 246.04 
L 847.36332 246.04 
L 845.307654 246.04 
L 843.251988 246.04 
L 841.196322 246.04 
L 839.140656 246.04 
L 837.08499 246.04 
L 835.029324 246.04 
L 832.973657 246.04 
L 830.917991 246.04 
L 828.862325 246.04 
L 826.806659 246.04 
L 824.750993 246.04 
L 822.695327 246.04 
L 820.639661 246.04 
L 818.583995 246.04 
L 816.528328 246.04 
L 814.472662 246.04 
L 812.416996 246.04 
L 810.36133 246.04 
L 808.305664 246.04 
L 806.249998 246.04 
L 804.194332 246.04 
L 802.138665 246.04 
L 800.082999 246.04 
L 798.027333 246.04 
L 795.971667 246.04 
L 793.916001 246.04 
L 791.860335 246.04 
L 789.804669 246.04 
L 787.749003 246.04 
L 785.693336 246.04 
L 783.63767 246.04 
L 781.582004 246.04 
L 779.526338 246.04 
L 777.470672 246.04 
L 775.415006 246.04 
L 773.35934 246.04 
L 771.303674 246.04 
L 769.248007 246.04 
L 767.192341 246.04 
L 765.136675 246.04 
L 763.081009 246.04 
L 761.025343 246.04 
L 758.969677 246.04 
L 756.914011 246.04 
L 754.858345 246.04 
L 752.802678 246.04 
L 750.747012 246.04 
L 748.691346 246.04 
L 746.63568 246.04 
L 744.580014 246.04 
L 742.524348 246.04 
L 740.468682 246.04 
L 738.413016 246.04 
L 736.357349 246.04 
L 734.301683 246.04 
L 732.246017 246.04 
L 730.190351 246.04 
L 728.134685 246.04 
L 726.079019 246.04 
L 724.023353 246.04 
L 721.967687 246.04 
L 719.91202 246.04 
L 717.856354 246.04 
L 715.800688 246.04 
L 713.745022 246.04 
L 711.689356 246.04 
L 709.63369 246.04 
L 707.578024 246.04 
L 705.522358 246.04 
L 703.466691 246.04 
L 701.411025 246.04 
L 699.355359 246.04 
L 697.299693 246.04 
L 695.244027 246.04 
L 693.188361 246.04 
L 691.132695 246.04 
L 689.077029 246.04 
L 687.021362 246.04 
L 684.965696 246.04 
L 682.91003 246.04 
L 680.854364 246.04 
L 678.798698 246.04 
L 676.743032 246.04 
L 674.687366 246.04 
L 672.631699 246.04 
L 670.576033 246.04 
L 668.520367 246.04 
L 666.464701 246.04 
L 664.409035 246.04 
L 662.353369 246.04 
L 660.297703 246.04 
L 658.242037 246.04 
L 656.18637 246.04 
L 654.130704 246.04 
L 652.075038 246.04 
L 650.019372 246.04 
L 647.963706 246.04 
L 645.90804 246.04 
L 643.852374 246.04 
L 641.796708 246.04 
L 639.741041 246.04 
L 637.685375 246.04 
L 635.629709 246.04 
L 633.574043 246.04 
L 631.518377 246.04 
L 629.462711 246.04 
L 627.407045 246.04 
L 625.351379 246.04 
L 623.295712 246.04 
L 621.240046 246.04 
L 619.18438 246.04 
L 617.128714 246.04 
L 615.073048 246.04 
L 613.017382 246.04 
L 610.961716 246.04 
L 608.90605 246.04 
L 606.850383 246.04 
L 604.794717 246.04 
L 602.739051 246.04 
L 600.683385 246.04 
L 598.627719 246.04 
L 596.572053 246.04 
L 594.516387 246.04 
L 592.460721 246.04 
L 590.405054 246.04 
L 588.349388 246.04 
L 586.293722 246.04 
L 584.238056 246.04 
L 582.18239 246.04 
L 580.126724 246.04 
L 578.071058 246.04 
L 576.015392 246.04 
L 573.959725 246.04 
L 571.904059 246.04 
L 569.848393 246.04 
L 567.792727 246.04 
L 565.737061 246.04 
L 563.681395 246.04 
L 561.625729 246.04 
L 559.570062 246.04 
L 557.514396 246.04 
L 555.45873 246.04 
L 553.403064 246.04 
L 551.347398 246.04 
L 549.291732 246.04 
L 547.236066 246.04 
L 545.1804 246.04 
L 543.124733 246.04 
L 541.069067 246.04 
L 539.013401 246.04 
L 536.957735 246.04 
L 534.902069 246.04 
L 532.846403 246.04 
L 530.790737 246.04 
L 528.735071 246.04 
L 526.679404 246.04 
L 524.623738 246.04 
L 522.568072 246.04 
L 520.512406 246.04 
L 518.45674 246.04 
L 516.401074 246.04 
L 514.345408 246.04 
L 512.289742 246.04 
L 510.234075 246.04 
L 508.178409 246.04 
L 506.122743 246.04 
L 504.067077 246.04 
L 502.011411 246.04 
L 499.955745 246.04 
L 497.900079 246.04 
L 495.844413 246.04 
L 493.788746 246.04 
L 491.73308 246.04 
L 489.677414 246.04 
L 487.621748 246.04 
L 485.566082 246.04 
L 483.510416 246.04 
L 481.45475 246.04 
L 479.399084 246.04 
L 477.343417 246.04 
L 475.287751 246.04 
L 473.232085 246.04 
L 471.176419 246.04 
L 469.120753 246.04 
L 467.065087 246.04 
L 465.009421 246.04 
L 462.953755 246.04 
L 460.898088 246.04 
L 458.842422 246.04 
L 456.786756 246.04 
L 454.73109 246.04 
L 452.675424 246.04 
L 450.619758 246.04 
L 448.564092 246.04 
L 446.508426 246.04 
L 444.452759 246.04 
L 442.397093 246.04 
L 440.341427 246.04 
L 438.285761 246.04 
L 436.230095 246.04 
L 434.174429 246.04 
L 432.118763 246.04 
L 430.063096 246.04 
L 428.00743 246.04 
L 425.951764 246.04 
L 423.896098 246.04 
L 421.840432 246.04 
L 419.784766 246.04 
L 417.7291 246.04 
L 415.673434 246.04 
L 413.617767 246.04 
L 411.562101 246.04 
L 409.506435 246.04 
L 407.450769 246.04 
L 405.395103 246.04 
L 403.339437 246.04 
L 401.283771 246.04 
L 399.228105 246.04 
L 397.172438 246.04 
L 395.116772 246.04 
L 393.061106 246.04 
L 391.00544 246.04 
L 388.949774 246.04 
L 386.894108 246.04 
L 384.838442 246.04 
L 382.782776 246.04 
L 380.727109 246.04 
L 378.671443 246.04 
L 376.615777 246.04 
L 374.560111 246.04 
L 372.504445 246.04 
L 370.448779 246.04 
L 368.393113 246.04 
L 366.337447 246.04 
L 364.28178 246.04 
L 362.226114 246.04 
L 360.170448 246.04 
L 358.114782 246.04 
L 356.059116 246.04 
L 354.00345 246.04 
L 351.947784 246.04 
L 349.892118 246.04 
L 347.836451 246.04 
L 345.780785 246.04 
L 343.725119 246.04 
L 341.669453 246.04 
L 339.613787 246.04 
L 337.558121 246.04 
L 335.502455 246.04 
L 333.446789 246.04 
L 331.391122 246.04 
L 329.335456 246.04 
L 327.27979 246.04 
L 325.224124 246.04 
L 323.168458 246.04 
L 321.112792 246.04 
L 319.057126 246.04 
L 317.00146 246.04 
L 314.945793 246.04 
L 312.890127 246.04 
L 310.834461 246.04 
L 308.778795 246.04 
L 306.723129 246.04 
L 304.667463 246.04 
L 302.611797 246.04 
L 300.55613 246.04 
L 298.500464 246.04 
L 296.444798 246.04 
L 294.389132 246.04 
L 292.333466 246.04 
L 290.2778 246.04 
L 288.222134 246.04 
L 286.166468 246.04 
L 284.110801 246.04 
L 282.055135 246.04 
L 279.999469 246.04 
L 277.943803 246.04 
L 275.888137 246.04 
L 273.832471 246.04 
L 271.776805 246.04 
L 269.721139 246.04 
L 267.665472 246.04 
L 265.609806 246.04 
L 263.55414 246.04 
L 261.498474 246.04 
L 259.442808 246.04 
L 257.387142 246.04 
L 255.331476 246.04 
L 253.27581 246.04 
L 251.220143 246.04 
L 249.164477 246.04 
L 247.108811 246.04 
L 245.053145 246.04 
L 242.997479 246.04 
L 240.941813 246.04 
L 238.886147 246.04 
L 236.830481 246.04 
L 234.774814 246.04 
L 232.719148 246.04 
L 230.663482 246.04 
L 228.607816 246.04 
L 226.55215 246.04 
L 224.496484 246.04 
L 222.440818 246.04 
L 220.385152 246.04 
L 218.329485 246.04 
L 216.273819 246.04 
L 214.218153 246.04 
L 212.162487 246.04 
L 210.106821 246.04 
L 208.051155 246.04 
L 205.995489 246.04 
L 203.939823 246.04 
L 201.884156 246.04 
L 199.82849 246.04 
L 197.772824 246.04 
L 195.717158 246.04 
L 193.661492 246.04 
L 191.605826 246.04 
L 189.55016 246.04 
L 187.494494 246.04 
L 185.438827 246.04 
L 183.383161 246.04 
L 181.327495 246.04 
L 179.271829 246.04 
L 177.216163 246.04 
L 175.160497 246.04 
L 173.104831 246.04 
L 171.049164 246.04 
L 168.993498 246.04 
L 166.937832 246.04 
L 164.882166 246.04 
L 162.8265 246.04 
L 160.770834 246.04 
L 158.715168 246.04 
L 156.659502 246.04 
L 154.603835 246.04 
L 152.548169 246.04 
L 150.492503 246.04 
L 148.436837 246.04 
L 146.381171 246.04 
L 144.325505 246.04 
L 142.269839 246.04 
L 140.214173 246.04 
L 138.158506 246.04 
L 136.10284 246.04 
L 134.047174 246.04 
L 131.991508 246.04 
L 129.935842 246.04 
L 127.880176 246.04 
L 125.82451 246.04 
L 123.768844 246.04 
L 121.713177 246.04 
L 119.657511 246.04 
L 117.601845 246.04 
L 115.546179 246.04 
L 113.490513 246.04 
L 111.434847 246.04 
L 109.379181 246.04 
L 107.323515 246.04 
L 105.267848 246.04 
L 103.212182 246.04 
L 101.156516 246.04 
L 99.10085 246.04 
L 97.045184 246.04 
L 94.989518 246.04 
L 92.933852 246.04 
L 90.878186 246.04 
L 88.822519 246.04 
L 86.766853 246.04 
L 84.711187 246.04 
L 82.655521 246.04 
L 80.599855 246.04 
L 78.544189 246.04 
L 76.488523 246.04 
L 74.432857 246.04 
L 72.37719 246.04 
L 70.321524 246.04 
L 68.265858 246.04 
L 66.210192 246.04 
L 64.154526 246.04 
L 62.09886 246.04 
L 60.043194 246.04 
L 57.987527 246.04 
L 55.931861 246.04 
L 53.876195 246.04 
L 51.820529 246.04 
L 49.764863 246.04 
L 47.709197 246.04 
L 45.653531 246.04 
L 43.597865 246.04 
L 41.542198 246.04 
L 39.486532 246.04 
L 37.430866 246.04 
L 35.3752 246.04 
L 33.319534 246.04 
L 31.263868 246.04 
L 29.208202 246.04 
L 27.152536 246.04 
L 25.096869 246.04 
L 23.041203 246.04 
L 20.985537 246.04 
L 18.929871 246.04 
L 16.874205 246.04 
L 14.818539 246.04 
L 12.762873 246.04 
L 10.707207 246.04 
L 8.65154 246.04 
L 6.595874 246.04 
L 4.540208 246.04 
L 2.484542 246.04 
L 0.428876 246.04 
L -1.62679 246.04 
L -3.682456 246.04 
L -5.738122 246.04 
L -7.793789 246.04 
L -9.849455 246.04 
L -11.905121 246.04 
L -13.960787 246.04 
L -16.016453 246.04 
L -18.072119 246.04 
L -20.127785 246.04 
L -22.183451 246.04 
z
" clip-path="url(#p2e19f038db)" style="fill: #1f77b4; fill-opacity: 0.5"/>
   </g>
   <g id="PolyCollection_2">
    <path d="M 68.265858 246.04 
L 68.265858 212.658534 
L 70.321524 210.933475 
L 72.37719 209.116522 
L 74.432857 207.203512 
L 76.488523 205.19003 
L 78.544189 203.071476 
L 80.599855 200.843138 
L 82.655521 198.500269 
L 84.711187 196.038166 
L 86.766853 193.452212 
L 88.822519 190.737907 
L 90.878186 187.890861 
L 92.933852 184.906766 
L 94.989518 181.781375 
L 97.045184 178.510512 
L 99.10085 175.090142 
L 101.156516 171.516552 
L 103.212182 167.786636 
L 105.267848 163.898288 
L 107.323515 159.850851 
L 109.379181 155.645558 
L 111.434847 151.285865 
L 113.490513 146.7776 
L 115.546179 142.128844 
L 117.601845 137.349569 
L 119.657511 132.451063 
L 121.713177 127.445286 
L 123.768844 122.344337 
L 125.82451 117.160231 
L 127.880176 111.90514 
L 129.935842 106.5922 
L 131.991508 101.236797 
L 134.047174 95.85813 
L 136.10284 90.480655 
L 138.158506 85.134906 
L 140.214173 79.857201 
L 142.269839 74.687921 
L 144.325505 69.668344 
L 146.381171 64.836506 
L 148.436837 60.222966 
L 150.492503 55.847607 
L 152.548169 51.718527 
L 154.603835 47.833592 
L 156.659502 44.184493 
L 158.715168 40.762317 
L 160.770834 37.563147 
L 162.8265 34.592125 
L 164.882166 31.86496 
L 166.937832 29.406691 
L 168.993498 27.248432 
L 171.049164 25.423287 
L 173.104831 23.962611 
L 175.160497 22.893229 
L 177.216163 22.235533 
L 179.271829 22.001905 
L 181.327495 22.194908 
L 183.383161 22.805236 
L 185.438827 23.810034 
L 187.494494 25.172657 
L 189.55016 26.844746 
L 191.605826 28.770744 
L 193.661492 30.893963 
L 195.717158 33.162485 
L 197.772824 35.533105 
L 199.82849 37.972152 
L 201.884156 40.45329 
L 203.939823 42.953586 
L 205.995489 45.449852 
L 208.051155 47.917059 
L 210.106821 50.329714 
L 212.162487 52.665755 
L 214.218153 54.911395 
L 216.273819 57.064911 
L 218.329485 59.13771 
L 220.385152 61.152045 
L 222.440818 63.135994 
L 224.496484 65.11731 
L 226.55215 67.118114 
L 228.607816 69.152079 
L 230.663482 71.224816 
L 232.719148 73.337105 
L 234.774814 75.489681 
L 236.830481 77.687852 
L 238.886147 79.944386 
L 240.941813 82.279695 
L 242.997479 84.719218 
L 245.053145 87.288714 
L 247.108811 90.008679 
L 249.164477 92.889255 
L 251.220143 95.926768 
L 253.27581 99.102511 
L 255.331476 102.383869 
L 257.387142 105.727357 
L 259.442808 109.08286 
L 261.498474 112.398266 
L 263.55414 115.623792 
L 265.609806 118.71549 
L 267.665472 121.637709 
L 269.721139 124.364469 
L 271.776805 126.879888 
L 273.832471 129.177864 
L 275.888137 131.261224 
L 277.943803 133.140532 
L 279.999469 134.832707 
L 282.055135 136.359539 
L 284.110801 137.746178 
L 286.166468 139.019641 
L 288.222134 140.207382 
L 290.2778 141.335962 
L 292.333466 142.429864 
L 294.389132 143.510503 
L 296.444798 144.595447 
L 298.500464 145.697905 
L 300.55613 146.82647 
L 302.611797 147.985133 
L 304.667463 149.173536 
L 306.723129 150.387432 
L 308.778795 151.619316 
L 310.834461 152.859158 
L 312.890127 154.095207 
L 314.945793 155.314793 
L 317.00146 156.505105 
L 319.057126 157.653901 
L 321.112792 158.750113 
L 323.168458 159.784344 
L 325.224124 160.749232 
L 327.27979 161.639679 
L 329.335456 162.452945 
L 331.391122 163.1886 
L 333.446789 163.848372 
L 335.502455 164.435872 
L 337.558121 164.956243 
L 339.613787 165.415754 
L 341.669453 165.821356 
L 343.725119 166.180244 
L 345.780785 166.499455 
L 347.836451 166.785524 
L 349.892118 167.044218 
L 351.947784 167.280381 
L 354.00345 167.497879 
L 356.059116 167.699647 
L 358.114782 167.88783 
L 360.170448 168.063997 
L 362.226114 168.229386 
L 364.28178 168.385171 
L 366.337447 168.532696 
L 368.393113 168.673669 
L 370.448779 168.810286 
L 372.504445 168.945277 
L 374.560111 169.081875 
L 376.615777 169.223722 
L 378.671443 169.374728 
L 380.727109 169.538915 
L 382.782776 169.720255 
L 384.838442 169.922546 
L 386.894108 170.149325 
L 388.949774 170.403824 
L 391.00544 170.688973 
L 393.061106 171.007434 
L 395.116772 171.361636 
L 397.172438 171.7538 
L 399.228105 172.185934 
L 401.283771 172.659771 
L 403.339437 173.17666 
L 405.395103 173.737398 
L 407.450769 174.342032 
L 409.506435 174.989653 
L 411.562101 175.678203 
L 413.617767 176.404335 
L 415.673434 177.163345 
L 417.7291 177.949213 
L 419.784766 178.754742 
L 421.840432 179.57181 
L 423.896098 180.391717 
L 425.951764 181.2056 
L 428.00743 182.004891 
L 430.063096 182.781779 
L 432.118763 183.529631 
L 434.174429 184.243351 
L 436.230095 184.919645 
L 438.285761 185.557159 
L 440.341427 186.156509 
L 442.397093 186.720168 
L 444.452759 187.252254 
L 446.508426 187.758221 
L 448.564092 188.244478 
L 450.619758 188.717972 
L 452.675424 189.18577 
L 454.73109 189.654653 
L 456.786756 190.130763 
L 458.842422 190.619322 
L 460.898088 191.124423 
L 462.953755 191.64892 
L 465.009421 192.194394 
L 467.065087 192.761216 
L 469.120753 193.348656 
L 471.176419 193.955071 
L 473.232085 194.578105 
L 475.287751 195.214918 
L 477.343417 195.862415 
L 479.399084 196.517451 
L 481.45475 197.177015 
L 483.510416 197.838373 
L 485.566082 198.499175 
L 487.621748 199.157513 
L 489.677414 199.811945 
L 491.73308 200.461478 
L 493.788746 201.105524 
L 495.844413 201.743837 
L 497.900079 202.376432 
L 499.955745 203.003503 
L 502.011411 203.625339 
L 504.067077 204.242246 
L 506.122743 204.854485 
L 508.178409 205.462226 
L 510.234075 206.065508 
L 512.289742 206.664225 
L 514.345408 207.258128 
L 516.401074 207.846828 
L 518.45674 208.429826 
L 520.512406 209.006539 
L 522.568072 209.576329 
L 524.623738 210.138547 
L 526.679404 210.692559 
L 528.735071 211.237778 
L 530.790737 211.773688 
L 532.846403 212.299863 
L 534.902069 212.815979 
L 536.957735 213.321816 
L 539.013401 213.817259 
L 541.069067 214.302291 
L 543.124733 214.776986 
L 545.1804 215.241494 
L 547.236066 215.696027 
L 549.291732 216.140853 
L 551.347398 216.576276 
L 553.403064 217.002634 
L 555.45873 217.420289 
L 557.514396 217.829621 
L 559.570062 218.231033 
L 561.625729 218.624945 
L 563.681395 219.0118 
L 565.737061 219.392064 
L 567.792727 219.766235 
L 569.848393 220.13484 
L 571.904059 220.498436 
L 573.959725 220.857617 
L 576.015392 221.213001 
L 578.071058 221.565233 
L 580.126724 221.914973 
L 582.18239 222.262888 
L 584.238056 222.609641 
L 586.293722 222.955874 
L 588.349388 223.3022 
L 590.405054 223.649181 
L 592.460721 223.997322 
L 594.516387 224.347053 
L 596.572053 224.698719 
L 598.627719 225.052571 
L 600.683385 225.408758 
L 602.739051 225.767326 
L 604.794717 226.128215 
L 606.850383 226.491261 
L 608.90605 226.856198 
L 610.961716 227.222673 
L 613.017382 227.590245 
L 615.073048 227.958407 
L 617.128714 228.32659 
L 619.18438 228.694183 
L 621.240046 229.060545 
L 623.295712 229.425018 
L 625.351379 229.786944 
L 627.407045 230.145677 
L 627.407045 246.04 
L 627.407045 246.04 
L 625.351379 246.04 
L 623.295712 246.04 
L 621.240046 246.04 
L 619.18438 246.04 
L 617.128714 246.04 
L 615.073048 246.04 
L 613.017382 246.04 
L 610.961716 246.04 
L 608.90605 246.04 
L 606.850383 246.04 
L 604.794717 246.04 
L 602.739051 246.04 
L 600.683385 246.04 
L 598.627719 246.04 
L 596.572053 246.04 
L 594.516387 246.04 
L 592.460721 246.04 
L 590.405054 246.04 
L 588.349388 246.04 
L 586.293722 246.04 
L 584.238056 246.04 
L 582.18239 246.04 
L 580.126724 246.04 
L 578.071058 246.04 
L 576.015392 246.04 
L 573.959725 246.04 
L 571.904059 246.04 
L 569.848393 246.04 
L 567.792727 246.04 
L 565.737061 246.04 
L 563.681395 246.04 
L 561.625729 246.04 
L 559.570062 246.04 
L 557.514396 246.04 
L 555.45873 246.04 
L 553.403064 246.04 
L 551.347398 246.04 
L 549.291732 246.04 
L 547.236066 246.04 
L 545.1804 246.04 
L 543.124733 246.04 
L 541.069067 246.04 
L 539.013401 246.04 
L 536.957735 246.04 
L 534.902069 246.04 
L 532.846403 246.04 
L 530.790737 246.04 
L 528.735071 246.04 
L 526.679404 246.04 
L 524.623738 246.04 
L 522.568072 246.04 
L 520.512406 246.04 
L 518.45674 246.04 
L 516.401074 246.04 
L 514.345408 246.04 
L 512.289742 246.04 
L 510.234075 246.04 
L 508.178409 246.04 
L 506.122743 246.04 
L 504.067077 246.04 
L 502.011411 246.04 
L 499.955745 246.04 
L 497.900079 246.04 
L 495.844413 246.04 
L 493.788746 246.04 
L 491.73308 246.04 
L 489.677414 246.04 
L 487.621748 246.04 
L 485.566082 246.04 
L 483.510416 246.04 
L 481.45475 246.04 
L 479.399084 246.04 
L 477.343417 246.04 
L 475.287751 246.04 
L 473.232085 246.04 
L 471.176419 246.04 
L 469.120753 246.04 
L 467.065087 246.04 
L 465.009421 246.04 
L 462.953755 246.04 
L 460.898088 246.04 
L 458.842422 246.04 
L 456.786756 246.04 
L 454.73109 246.04 
L 452.675424 246.04 
L 450.619758 246.04 
L 448.564092 246.04 
L 446.508426 246.04 
L 444.452759 246.04 
L 442.397093 246.04 
L 440.341427 246.04 
L 438.285761 246.04 
L 436.230095 246.04 
L 434.174429 246.04 
L 432.118763 246.04 
L 430.063096 246.04 
L 428.00743 246.04 
L 425.951764 246.04 
L 423.896098 246.04 
L 421.840432 246.04 
L 419.784766 246.04 
L 417.7291 246.04 
L 415.673434 246.04 
L 413.617767 246.04 
L 411.562101 246.04 
L 409.506435 246.04 
L 407.450769 246.04 
L 405.395103 246.04 
L 403.339437 246.04 
L 401.283771 246.04 
L 399.228105 246.04 
L 397.172438 246.04 
L 395.116772 246.04 
L 393.061106 246.04 
L 391.00544 246.04 
L 388.949774 246.04 
L 386.894108 246.04 
L 384.838442 246.04 
L 382.782776 246.04 
L 380.727109 246.04 
L 378.671443 246.04 
L 376.615777 246.04 
L 374.560111 246.04 
L 372.504445 246.04 
L 370.448779 246.04 
L 368.393113 246.04 
L 366.337447 246.04 
L 364.28178 246.04 
L 362.226114 246.04 
L 360.170448 246.04 
L 358.114782 246.04 
L 356.059116 246.04 
L 354.00345 246.04 
L 351.947784 246.04 
L 349.892118 246.04 
L 347.836451 246.04 
L 345.780785 246.04 
L 343.725119 246.04 
L 341.669453 246.04 
L 339.613787 246.04 
L 337.558121 246.04 
L 335.502455 246.04 
L 333.446789 246.04 
L 331.391122 246.04 
L 329.335456 246.04 
L 327.27979 246.04 
L 325.224124 246.04 
L 323.168458 246.04 
L 321.112792 246.04 
L 319.057126 246.04 
L 317.00146 246.04 
L 314.945793 246.04 
L 312.890127 246.04 
L 310.834461 246.04 
L 308.778795 246.04 
L 306.723129 246.04 
L 304.667463 246.04 
L 302.611797 246.04 
L 300.55613 246.04 
L 298.500464 246.04 
L 296.444798 246.04 
L 294.389132 246.04 
L 292.333466 246.04 
L 290.2778 246.04 
L 288.222134 246.04 
L 286.166468 246.04 
L 284.110801 246.04 
L 282.055135 246.04 
L 279.999469 246.04 
L 277.943803 246.04 
L 275.888137 246.04 
L 273.832471 246.04 
L 271.776805 246.04 
L 269.721139 246.04 
L 267.665472 246.04 
L 265.609806 246.04 
L 263.55414 246.04 
L 261.498474 246.04 
L 259.442808 246.04 
L 257.387142 246.04 
L 255.331476 246.04 
L 253.27581 246.04 
L 251.220143 246.04 
L 249.164477 246.04 
L 247.108811 246.04 
L 245.053145 246.04 
L 242.997479 246.04 
L 240.941813 246.04 
L 238.886147 246.04 
L 236.830481 246.04 
L 234.774814 246.04 
L 232.719148 246.04 
L 230.663482 246.04 
L 228.607816 246.04 
L 226.55215 246.04 
L 224.496484 246.04 
L 222.440818 246.04 
L 220.385152 246.04 
L 218.329485 246.04 
L 216.273819 246.04 
L 214.218153 246.04 
L 212.162487 246.04 
L 210.106821 246.04 
L 208.051155 246.04 
L 205.995489 246.04 
L 203.939823 246.04 
L 201.884156 246.04 
L 199.82849 246.04 
L 197.772824 246.04 
L 195.717158 246.04 
L 193.661492 246.04 
L 191.605826 246.04 
L 189.55016 246.04 
L 187.494494 246.04 
L 185.438827 246.04 
L 183.383161 246.04 
L 181.327495 246.04 
L 179.271829 246.04 
L 177.216163 246.04 
L 175.160497 246.04 
L 173.104831 246.04 
L 171.049164 246.04 
L 168.993498 246.04 
L 166.937832 246.04 
L 164.882166 246.04 
L 162.8265 246.04 
L 160.770834 246.04 
L 158.715168 246.04 
L 156.659502 246.04 
L 154.603835 246.04 
L 152.548169 246.04 
L 150.492503 246.04 
L 148.436837 246.04 
L 146.381171 246.04 
L 144.325505 246.04 
L 142.269839 246.04 
L 140.214173 246.04 
L 138.158506 246.04 
L 136.10284 246.04 
L 134.047174 246.04 
L 131.991508 246.04 
L 129.935842 246.04 
L 127.880176 246.04 
L 125.82451 246.04 
L 123.768844 246.04 
L 121.713177 246.04 
L 119.657511 246.04 
L 117.601845 246.04 
L 115.546179 246.04 
L 113.490513 246.04 
L 111.434847 246.04 
L 109.379181 246.04 
L 107.323515 246.04 
L 105.267848 246.04 
L 103.212182 246.04 
L 101.156516 246.04 
L 99.10085 246.04 
L 97.045184 246.04 
L 94.989518 246.04 
L 92.933852 246.04 
L 90.878186 246.04 
L 88.822519 246.04 
L 86.766853 246.04 
L 84.711187 246.04 
L 82.655521 246.04 
L 80.599855 246.04 
L 78.544189 246.04 
L 76.488523 246.04 
L 74.432857 246.04 
L 72.37719 246.04 
L 70.321524 246.04 
L 68.265858 246.04 
z
" clip-path="url(#p2e19f038db)" style="fill-opacity: 0.25"/>
   </g>
   <g id="PolyCollection_3">
    <path d="M 146.381171 246.04 
L 146.381171 64.836506 
L 148.436837 60.222966 
L 150.492503 55.847607 
L 152.548169 51.718527 
L 154.603835 47.833592 
L 156.659502 44.184493 
L 158.715168 40.762317 
L 160.770834 37.563147 
L 162.8265 34.592125 
L 164.882166 31.86496 
L 166.937832 29.406691 
L 168.993498 27.248432 
L 171.049164 25.423287 
L 173.104831 23.962611 
L 175.160497 22.893229 
L 177.216163 22.235533 
L 179.271829 22.001905 
L 181.327495 22.194908 
L 183.383161 22.805236 
L 185.438827 23.810034 
L 187.494494 25.172657 
L 189.55016 26.844746 
L 191.605826 28.770744 
L 193.661492 30.893963 
L 195.717158 33.162485 
L 197.772824 35.533105 
L 199.82849 37.972152 
L 201.884156 40.45329 
L 203.939823 42.953586 
L 205.995489 45.449852 
L 208.051155 47.917059 
L 210.106821 50.329714 
L 212.162487 52.665755 
L 214.218153 54.911395 
L 216.273819 57.064911 
L 218.329485 59.13771 
L 220.385152 61.152045 
L 222.440818 63.135994 
L 224.496484 65.11731 
L 226.55215 67.118114 
L 228.607816 69.152079 
L 230.663482 71.224816 
L 232.719148 73.337105 
L 234.774814 75.489681 
L 236.830481 77.687852 
L 238.886147 79.944386 
L 240.941813 82.279695 
L 242.997479 84.719218 
L 245.053145 87.288714 
L 247.108811 90.008679 
L 249.164477 92.889255 
L 251.220143 95.926768 
L 253.27581 99.102511 
L 255.331476 102.383869 
L 257.387142 105.727357 
L 259.442808 109.08286 
L 261.498474 112.398266 
L 263.55414 115.623792 
L 265.609806 118.71549 
L 267.665472 121.637709 
L 269.721139 124.364469 
L 271.776805 126.879888 
L 273.832471 129.177864 
L 275.888137 131.261224 
L 277.943803 133.140532 
L 279.999469 134.832707 
L 282.055135 136.359539 
L 284.110801 137.746178 
L 286.166468 139.019641 
L 288.222134 140.207382 
L 290.2778 141.335962 
L 292.333466 142.429864 
L 294.389132 143.510503 
L 296.444798 144.595447 
L 298.500464 145.697905 
L 300.55613 146.82647 
L 302.611797 147.985133 
L 304.667463 149.173536 
L 306.723129 150.387432 
L 308.778795 151.619316 
L 310.834461 152.859158 
L 312.890127 154.095207 
L 314.945793 155.314793 
L 317.00146 156.505105 
L 319.057126 157.653901 
L 321.112792 158.750113 
L 323.168458 159.784344 
L 325.224124 160.749232 
L 327.27979 161.639679 
L 329.335456 162.452945 
L 331.391122 163.1886 
L 333.446789 163.848372 
L 335.502455 164.435872 
L 337.558121 164.956243 
L 339.613787 165.415754 
L 341.669453 165.821356 
L 343.725119 166.180244 
L 345.780785 166.499455 
L 347.836451 166.785524 
L 349.892118 167.044218 
L 351.947784 167.280381 
L 354.00345 167.497879 
L 356.059116 167.699647 
L 358.114782 167.88783 
L 360.170448 168.063997 
L 362.226114 168.229386 
L 364.28178 168.385171 
L 366.337447 168.532696 
L 368.393113 168.673669 
L 370.448779 168.810286 
L 372.504445 168.945277 
L 374.560111 169.081875 
L 376.615777 169.223722 
L 378.671443 169.374728 
L 380.727109 169.538915 
L 382.782776 169.720255 
L 384.838442 169.922546 
L 386.894108 170.149325 
L 388.949774 170.403824 
L 391.00544 170.688973 
L 393.061106 171.007434 
L 395.116772 171.361636 
L 397.172438 171.7538 
L 399.228105 172.185934 
L 401.283771 172.659771 
L 403.339437 173.17666 
L 405.395103 173.737398 
L 407.450769 174.342032 
L 409.506435 174.989653 
L 411.562101 175.678203 
L 413.617767 176.404335 
L 415.673434 177.163345 
L 417.7291 177.949213 
L 419.784766 178.754742 
L 421.840432 179.57181 
L 423.896098 180.391717 
L 425.951764 181.2056 
L 428.00743 182.004891 
L 428.00743 246.04 
L 428.00743 246.04 
L 425.951764 246.04 
L 423.896098 246.04 
L 421.840432 246.04 
L 419.784766 246.04 
L 417.7291 246.04 
L 415.673434 246.04 
L 413.617767 246.04 
L 411.562101 246.04 
L 409.506435 246.04 
L 407.450769 246.04 
L 405.395103 246.04 
L 403.339437 246.04 
L 401.283771 246.04 
L 399.228105 246.04 
L 397.172438 246.04 
L 395.116772 246.04 
L 393.061106 246.04 
L 391.00544 246.04 
L 388.949774 246.04 
L 386.894108 246.04 
L 384.838442 246.04 
L 382.782776 246.04 
L 380.727109 246.04 
L 378.671443 246.04 
L 376.615777 246.04 
L 374.560111 246.04 
L 372.504445 246.04 
L 370.448779 246.04 
L 368.393113 246.04 
L 366.337447 246.04 
L 364.28178 246.04 
L 362.226114 246.04 
L 360.170448 246.04 
L 358.114782 246.04 
L 356.059116 246.04 
L 354.00345 246.04 
L 351.947784 246.04 
L 349.892118 246.04 
L 347.836451 246.04 
L 345.780785 246.04 
L 343.725119 246.04 
L 341.669453 246.04 
L 339.613787 246.04 
L 337.558121 246.04 
L 335.502455 246.04 
L 333.446789 246.04 
L 331.391122 246.04 
L 329.335456 246.04 
L 327.27979 246.04 
L 325.224124 246.04 
L 323.168458 246.04 
L 321.112792 246.04 
L 319.057126 246.04 
L 317.00146 246.04 
L 314.945793 246.04 
L 312.890127 246.04 
L 310.834461 246.04 
L 308.778795 246.04 
L 306.723129 246.04 
L 304.667463 246.04 
L 302.611797 246.04 
L 300.55613 246.04 
L 298.500464 246.04 
L 296.444798 246.04 
L 294.389132 246.04 
L 292.333466 246.04 
L 290.2778 246.04 
L 288.222134 246.04 
L 286.166468 246.04 
L 284.110801 246.04 
L 282.055135 246.04 
L 279.999469 246.04 
L 277.943803 246.04 
L 275.888137 246.04 
L 273.832471 246.04 
L 271.776805 246.04 
L 269.721139 246.04 
L 267.665472 246.04 
L 265.609806 246.04 
L 263.55414 246.04 
L 261.498474 246.04 
L 259.442808 246.04 
L 257.387142 246.04 
L 255.331476 246.04 
L 253.27581 246.04 
L 251.220143 246.04 
L 249.164477 246.04 
L 247.108811 246.04 
L 245.053145 246.04 
L 242.997479 246.04 
L 240.941813 246.04 
L 238.886147 246.04 
L 236.830481 246.04 
L 234.774814 246.04 
L 232.719148 246.04 
L 230.663482 246.04 
L 228.607816 246.04 
L 226.55215 246.04 
L 224.496484 246.04 
L 222.440818 246.04 
L 220.385152 246.04 
L 218.329485 246.04 
L 216.273819 246.04 
L 214.218153 246.04 
L 212.162487 246.04 
L 210.106821 246.04 
L 208.051155 246.04 
L 205.995489 246.04 
L 203.939823 246.04 
L 201.884156 246.04 
L 199.82849 246.04 
L 197.772824 246.04 
L 195.717158 246.04 
L 193.661492 246.04 
L 191.605826 246.04 
L 189.55016 246.04 
L 187.494494 246.04 
L 185.438827 246.04 
L 183.383161 246.04 
L 181.327495 246.04 
L 179.271829 246.04 
L 177.216163 246.04 
L 175.160497 246.04 
L 173.104831 246.04 
L 171.049164 246.04 
L 168.993498 246.04 
L 166.937832 246.04 
L 164.882166 246.04 
L 162.8265 246.04 
L 160.770834 246.04 
L 158.715168 246.04 
L 156.659502 246.04 
L 154.603835 246.04 
L 152.548169 246.04 
L 150.492503 246.04 
L 148.436837 246.04 
L 146.381171 246.04 
z
" clip-path="url(#p2e19f038db)" style="fill-opacity: 0.25"/>
   </g>
   <g id="matplotlib.axis_1">
    <g id="xtick_1">
     <g id="line2d_1">
      <defs>
       <path id="m14f1dd0e51" d="M 0 0 
L 0 3.5 
" style="stroke: #000000; stroke-width: 0.8"/>
      </defs>
      <g>
       <use xlink:href="#m14f1dd0e51" x="127.290896" y="246.04" style="stroke: #000000; stroke-width: 0.8"/>
      </g>
     </g>
     <g id="text_1">
      <!-- 2 -->
      <g transform="translate(124.109646 260.638438)scale(0.1 -0.1)">
       <defs>
        <path id="DejaVuSans-32" d="M 1228 531 
L 3431 531 
L 3431 0 
L 469 0 
L 469 531 
Q 828 903 1448 1529 
Q 2069 2156 2228 2338 
Q 2531 2678 2651 2914 
Q 2772 3150 2772 3378 
Q 2772 3750 2511 3984 
Q 2250 4219 1831 4219 
Q 1534 4219 1204 4116 
Q 875 4013 500 3803 
L 500 4441 
Q 881 4594 1212 4672 
Q 1544 4750 1819 4750 
Q 2544 4750 2975 4387 
Q 3406 4025 3406 3419 
Q 3406 3131 3298 2873 
Q 3191 2616 2906 2266 
Q 2828 2175 2409 1742 
Q 1991 1309 1228 531 
z
" transform="scale(0.015625)"/>
       </defs>
       <use xlink:href="#DejaVuSans-32"/>
      </g>
     </g>
    </g>
    <g id="xtick_2">
     <g id="line2d_2">
      <g>
       <use xlink:href="#m14f1dd0e51" x="277.86014" y="246.04" style="stroke: #000000; stroke-width: 0.8"/>
      </g>
     </g>
     <g id="text_2">
      <!-- 4 -->
      <g transform="translate(274.67889 260.638438)scale(0.1 -0.1)">
       <defs>
        <path id="DejaVuSans-34" d="M 2419 4116 
L 825 1625 
L 2419 1625 
L 2419 4116 
z
M 2253 4666 
L 3047 4666 
L 3047 1625 
L 3713 1625 
L 3713 1100 
L 3047 1100 
L 3047 0 
L 2419 0 
L 2419 1100 
L 313 1100 
L 313 1709 
L 2253 4666 
z
" transform="scale(0.015625)"/>
       </defs>
       <use xlink:href="#DejaVuSans-34"/>
      </g>
     </g>
    </g>
    <g id="xtick_3">
     <g id="line2d_3">
      <g>
       <use xlink:href="#m14f1dd0e51" x="428.429385" y="246.04" style="stroke: #000000; stroke-width: 0.8"/>
      </g>
     </g>
     <g id="text_3">
      <!-- 6 -->
      <g transform="translate(425.248135 260.638438)scale(0.1 -0.1)">
       <defs>
        <path id="DejaVuSans-36" d="M 2113 2584 
Q 1688 2584 1439 2293 
Q 1191 2003 1191 1497 
Q 1191 994 1439 701 
Q 1688 409 2113 409 
Q 2538 409 2786 701 
Q 3034 994 3034 1497 
Q 3034 2003 2786 2293 
Q 2538 2584 2113 2584 
z
M 3366 4563 
L 3366 3988 
Q 3128 4100 2886 4159 
Q 2644 4219 2406 4219 
Q 1781 4219 1451 3797 
Q 1122 3375 1075 2522 
Q 1259 2794 1537 2939 
Q 1816 3084 2150 3084 
Q 2853 3084 3261 2657 
Q 3669 2231 3669 1497 
Q 3669 778 3244 343 
Q 2819 -91 2113 -91 
Q 1303 -91 875 529 
Q 447 1150 447 2328 
Q 447 3434 972 4092 
Q 1497 4750 2381 4750 
Q 2619 4750 2861 4703 
Q 3103 4656 3366 4563 
z
" transform="scale(0.015625)"/>
       </defs>
       <use xlink:href="#DejaVuSans-36"/>
      </g>
     </g>
    </g>
    <g id="xtick_4">
     <g id="line2d_4">
      <g>
       <use xlink:href="#m14f1dd0e51" x="578.998629" y="246.04" style="stroke: #000000; stroke-width: 0.8"/>
      </g>
     </g>
     <g id="text_4">
      <!-- 8 -->
      <g transform="translate(575.817379 260.638438)scale(0.1 -0.1)">
       <defs>
        <path id="DejaVuSans-38" d="M 2034 2216 
Q 1584 2216 1326 1975 
Q 1069 1734 1069 1313 
Q 1069 891 1326 650 
Q 1584 409 2034 409 
Q 2484 409 2743 651 
Q 3003 894 3003 1313 
Q 3003 1734 2745 1975 
Q 2488 2216 2034 2216 
z
M 1403 2484 
Q 997 2584 770 2862 
Q 544 3141 544 3541 
Q 544 4100 942 4425 
Q 1341 4750 2034 4750 
Q 2731 4750 3128 4425 
Q 3525 4100 3525 3541 
Q 3525 3141 3298 2862 
Q 3072 2584 2669 2484 
Q 3125 2378 3379 2068 
Q 3634 1759 3634 1313 
Q 3634 634 3220 271 
Q 2806 -91 2034 -91 
Q 1263 -91 848 271 
Q 434 634 434 1313 
Q 434 1759 690 2068 
Q 947 2378 1403 2484 
z
M 1172 3481 
Q 1172 3119 1398 2916 
Q 1625 2713 2034 2713 
Q 2441 2713 2670 2916 
Q 2900 3119 2900 3481 
Q 2900 3844 2670 4047 
Q 2441 4250 2034 4250 
Q 1625 4250 1398 4047 
Q 1172 3844 1172 3481 
z
" transform="scale(0.015625)"/>
       </defs>
       <use xlink:href="#DejaVuSans-38"/>
      </g>
     </g>
    </g>
    <g id="text_5">
     <!-- RV semi-amplitude [m/s] -->
     <g transform="translate(306.920469 274.316562)scale(0.1 -0.1)">
      <defs>
       <path id="DejaVuSans-52" d="M 2841 2188 
Q 3044 2119 3236 1894 
Q 3428 1669 3622 1275 
L 4263 0 
L 3584 0 
L 2988 1197 
Q 2756 1666 2539 1819 
Q 2322 1972 1947 1972 
L 1259 1972 
L 1259 0 
L 628 0 
L 628 4666 
L 2053 4666 
Q 2853 4666 3247 4331 
Q 3641 3997 3641 3322 
Q 3641 2881 3436 2590 
Q 3231 2300 2841 2188 
z
M 1259 4147 
L 1259 2491 
L 2053 2491 
Q 2509 2491 2742 2702 
Q 2975 2913 2975 3322 
Q 2975 3731 2742 3939 
Q 2509 4147 2053 4147 
L 1259 4147 
z
" transform="scale(0.015625)"/>
       <path id="DejaVuSans-56" d="M 1831 0 
L 50 4666 
L 709 4666 
L 2188 738 
L 3669 4666 
L 4325 4666 
L 2547 0 
L 1831 0 
z
" transform="scale(0.015625)"/>
       <path id="DejaVuSans-20" transform="scale(0.015625)"/>
       <path id="DejaVuSans-73" d="M 2834 3397 
L 2834 2853 
Q 2591 2978 2328 3040 
Q 2066 3103 1784 3103 
Q 1356 3103 1142 2972 
Q 928 2841 928 2578 
Q 928 2378 1081 2264 
Q 1234 2150 1697 2047 
L 1894 2003 
Q 2506 1872 2764 1633 
Q 3022 1394 3022 966 
Q 3022 478 2636 193 
Q 2250 -91 1575 -91 
Q 1294 -91 989 -36 
Q 684 19 347 128 
L 347 722 
Q 666 556 975 473 
Q 1284 391 1588 391 
Q 1994 391 2212 530 
Q 2431 669 2431 922 
Q 2431 1156 2273 1281 
Q 2116 1406 1581 1522 
L 1381 1569 
Q 847 1681 609 1914 
Q 372 2147 372 2553 
Q 372 3047 722 3315 
Q 1072 3584 1716 3584 
Q 2034 3584 2315 3537 
Q 2597 3491 2834 3397 
z
" transform="scale(0.015625)"/>
       <path id="DejaVuSans-65" d="M 3597 1894 
L 3597 1613 
L 953 1613 
Q 991 1019 1311 708 
Q 1631 397 2203 397 
Q 2534 397 2845 478 
Q 3156 559 3463 722 
L 3463 178 
Q 3153 47 2828 -22 
Q 2503 -91 2169 -91 
Q 1331 -91 842 396 
Q 353 884 353 1716 
Q 353 2575 817 3079 
Q 1281 3584 2069 3584 
Q 2775 3584 3186 3129 
Q 3597 2675 3597 1894 
z
M 3022 2063 
Q 3016 2534 2758 2815 
Q 2500 3097 2075 3097 
Q 1594 3097 1305 2825 
Q 1016 2553 972 2059 
L 3022 2063 
z
" transform="scale(0.015625)"/>
       <path id="DejaVuSans-6d" d="M 3328 2828 
Q 3544 3216 3844 3400 
Q 4144 3584 4550 3584 
Q 5097 3584 5394 3201 
Q 5691 2819 5691 2113 
L 5691 0 
L 5113 0 
L 5113 2094 
Q 5113 2597 4934 2840 
Q 4756 3084 4391 3084 
Q 3944 3084 3684 2787 
Q 3425 2491 3425 1978 
L 3425 0 
L 2847 0 
L 2847 2094 
Q 2847 2600 2669 2842 
Q 2491 3084 2119 3084 
Q 1678 3084 1418 2786 
Q 1159 2488 1159 1978 
L 1159 0 
L 581 0 
L 581 3500 
L 1159 3500 
L 1159 2956 
Q 1356 3278 1631 3431 
Q 1906 3584 2284 3584 
Q 2666 3584 2933 3390 
Q 3200 3197 3328 2828 
z
" transform="scale(0.015625)"/>
       <path id="DejaVuSans-69" d="M 603 3500 
L 1178 3500 
L 1178 0 
L 603 0 
L 603 3500 
z
M 603 4863 
L 1178 4863 
L 1178 4134 
L 603 4134 
L 603 4863 
z
" transform="scale(0.015625)"/>
       <path id="DejaVuSans-2d" d="M 313 2009 
L 1997 2009 
L 1997 1497 
L 313 1497 
L 313 2009 
z
" transform="scale(0.015625)"/>
       <path id="DejaVuSans-61" d="M 2194 1759 
Q 1497 1759 1228 1600 
Q 959 1441 959 1056 
Q 959 750 1161 570 
Q 1363 391 1709 391 
Q 2188 391 2477 730 
Q 2766 1069 2766 1631 
L 2766 1759 
L 2194 1759 
z
M 3341 1997 
L 3341 0 
L 2766 0 
L 2766 531 
Q 2569 213 2275 61 
Q 1981 -91 1556 -91 
Q 1019 -91 701 211 
Q 384 513 384 1019 
Q 384 1609 779 1909 
Q 1175 2209 1959 2209 
L 2766 2209 
L 2766 2266 
Q 2766 2663 2505 2880 
Q 2244 3097 1772 3097 
Q 1472 3097 1187 3025 
Q 903 2953 641 2809 
L 641 3341 
Q 956 3463 1253 3523 
Q 1550 3584 1831 3584 
Q 2591 3584 2966 3190 
Q 3341 2797 3341 1997 
z
" transform="scale(0.015625)"/>
       <path id="DejaVuSans-70" d="M 1159 525 
L 1159 -1331 
L 581 -1331 
L 581 3500 
L 1159 3500 
L 1159 2969 
Q 1341 3281 1617 3432 
Q 1894 3584 2278 3584 
Q 2916 3584 3314 3078 
Q 3713 2572 3713 1747 
Q 3713 922 3314 415 
Q 2916 -91 2278 -91 
Q 1894 -91 1617 61 
Q 1341 213 1159 525 
z
M 3116 1747 
Q 3116 2381 2855 2742 
Q 2594 3103 2138 3103 
Q 1681 3103 1420 2742 
Q 1159 2381 1159 1747 
Q 1159 1113 1420 752 
Q 1681 391 2138 391 
Q 2594 391 2855 752 
Q 3116 1113 3116 1747 
z
" transform="scale(0.015625)"/>
       <path id="DejaVuSans-6c" d="M 603 4863 
L 1178 4863 
L 1178 0 
L 603 0 
L 603 4863 
z
" transform="scale(0.015625)"/>
       <path id="DejaVuSans-74" d="M 1172 4494 
L 1172 3500 
L 2356 3500 
L 2356 3053 
L 1172 3053 
L 1172 1153 
Q 1172 725 1289 603 
Q 1406 481 1766 481 
L 2356 481 
L 2356 0 
L 1766 0 
Q 1100 0 847 248 
Q 594 497 594 1153 
L 594 3053 
L 172 3053 
L 172 3500 
L 594 3500 
L 594 4494 
L 1172 4494 
z
" transform="scale(0.015625)"/>
       <path id="DejaVuSans-75" d="M 544 1381 
L 544 3500 
L 1119 3500 
L 1119 1403 
Q 1119 906 1312 657 
Q 1506 409 1894 409 
Q 2359 409 2629 706 
Q 2900 1003 2900 1516 
L 2900 3500 
L 3475 3500 
L 3475 0 
L 2900 0 
L 2900 538 
Q 2691 219 2414 64 
Q 2138 -91 1772 -91 
Q 1169 -91 856 284 
Q 544 659 544 1381 
z
M 1991 3584 
L 1991 3584 
z
" transform="scale(0.015625)"/>
       <path id="DejaVuSans-64" d="M 2906 2969 
L 2906 4863 
L 3481 4863 
L 3481 0 
L 2906 0 
L 2906 525 
Q 2725 213 2448 61 
Q 2172 -91 1784 -91 
Q 1150 -91 751 415 
Q 353 922 353 1747 
Q 353 2572 751 3078 
Q 1150 3584 1784 3584 
Q 2172 3584 2448 3432 
Q 2725 3281 2906 2969 
z
M 947 1747 
Q 947 1113 1208 752 
Q 1469 391 1925 391 
Q 2381 391 2643 752 
Q 2906 1113 2906 1747 
Q 2906 2381 2643 2742 
Q 2381 3103 1925 3103 
Q 1469 3103 1208 2742 
Q 947 2381 947 1747 
z
" transform="scale(0.015625)"/>
       <path id="DejaVuSans-5b" d="M 550 4863 
L 1875 4863 
L 1875 4416 
L 1125 4416 
L 1125 -397 
L 1875 -397 
L 1875 -844 
L 550 -844 
L 550 4863 
z
" transform="scale(0.015625)"/>
       <path id="DejaVuSans-2f" d="M 1625 4666 
L 2156 4666 
L 531 -594 
L 0 -594 
L 1625 4666 
z
" transform="scale(0.015625)"/>
       <path id="DejaVuSans-5d" d="M 1947 4863 
L 1947 -844 
L 622 -844 
L 622 -397 
L 1369 -397 
L 1369 4416 
L 622 4416 
L 622 4863 
L 1947 4863 
z
" transform="scale(0.015625)"/>
      </defs>
      <use xlink:href="#DejaVuSans-52"/>
      <use xlink:href="#DejaVuSans-56" x="63.982422"/>
      <use xlink:href="#DejaVuSans-20" x="132.390625"/>
      <use xlink:href="#DejaVuSans-73" x="164.177734"/>
      <use xlink:href="#DejaVuSans-65" x="216.277344"/>
      <use xlink:href="#DejaVuSans-6d" x="277.800781"/>
      <use xlink:href="#DejaVuSans-69" x="375.212891"/>
      <use xlink:href="#DejaVuSans-2d" x="402.996094"/>
      <use xlink:href="#DejaVuSans-61" x="439.080078"/>
      <use xlink:href="#DejaVuSans-6d" x="500.359375"/>
      <use xlink:href="#DejaVuSans-70" x="597.771484"/>
      <use xlink:href="#DejaVuSans-6c" x="661.248047"/>
      <use xlink:href="#DejaVuSans-69" x="689.03125"/>
      <use xlink:href="#DejaVuSans-74" x="716.814453"/>
      <use xlink:href="#DejaVuSans-75" x="756.023438"/>
      <use xlink:href="#DejaVuSans-64" x="819.402344"/>
      <use xlink:href="#DejaVuSans-65" x="882.878906"/>
      <use xlink:href="#DejaVuSans-20" x="944.402344"/>
      <use xlink:href="#DejaVuSans-5b" x="976.189453"/>
      <use xlink:href="#DejaVuSans-6d" x="1015.203125"/>
      <use xlink:href="#DejaVuSans-2f" x="1112.615234"/>
      <use xlink:href="#DejaVuSans-73" x="1146.306641"/>
      <use xlink:href="#DejaVuSans-5d" x="1198.40625"/>
     </g>
    </g>
   </g>
   <g id="matplotlib.axis_2">
    <g id="text_6">
     <!-- Posterior probability -->
     <g transform="translate(18.800312 178.778594)rotate(-90)scale(0.1 -0.1)">
      <defs>
       <path id="DejaVuSans-50" d="M 1259 4147 
L 1259 2394 
L 2053 2394 
Q 2494 2394 2734 2622 
Q 2975 2850 2975 3272 
Q 2975 3691 2734 3919 
Q 2494 4147 2053 4147 
L 1259 4147 
z
M 628 4666 
L 2053 4666 
Q 2838 4666 3239 4311 
Q 3641 3956 3641 3272 
Q 3641 2581 3239 2228 
Q 2838 1875 2053 1875 
L 1259 1875 
L 1259 0 
L 628 0 
L 628 4666 
z
" transform="scale(0.015625)"/>
       <path id="DejaVuSans-6f" d="M 1959 3097 
Q 1497 3097 1228 2736 
Q 959 2375 959 1747 
Q 959 1119 1226 758 
Q 1494 397 1959 397 
Q 2419 397 2687 759 
Q 2956 1122 2956 1747 
Q 2956 2369 2687 2733 
Q 2419 3097 1959 3097 
z
M 1959 3584 
Q 2709 3584 3137 3096 
Q 3566 2609 3566 1747 
Q 3566 888 3137 398 
Q 2709 -91 1959 -91 
Q 1206 -91 779 398 
Q 353 888 353 1747 
Q 353 2609 779 3096 
Q 1206 3584 1959 3584 
z
" transform="scale(0.015625)"/>
       <path id="DejaVuSans-72" d="M 2631 2963 
Q 2534 3019 2420 3045 
Q 2306 3072 2169 3072 
Q 1681 3072 1420 2755 
Q 1159 2438 1159 1844 
L 1159 0 
L 581 0 
L 581 3500 
L 1159 3500 
L 1159 2956 
Q 1341 3275 1631 3429 
Q 1922 3584 2338 3584 
Q 2397 3584 2469 3576 
Q 2541 3569 2628 3553 
L 2631 2963 
z
" transform="scale(0.015625)"/>
       <path id="DejaVuSans-62" d="M 3116 1747 
Q 3116 2381 2855 2742 
Q 2594 3103 2138 3103 
Q 1681 3103 1420 2742 
Q 1159 2381 1159 1747 
Q 1159 1113 1420 752 
Q 1681 391 2138 391 
Q 2594 391 2855 752 
Q 3116 1113 3116 1747 
z
M 1159 2969 
Q 1341 3281 1617 3432 
Q 1894 3584 2278 3584 
Q 2916 3584 3314 3078 
Q 3713 2572 3713 1747 
Q 3713 922 3314 415 
Q 2916 -91 2278 -91 
Q 1894 -91 1617 61 
Q 1341 213 1159 525 
L 1159 0 
L 581 0 
L 581 4863 
L 1159 4863 
L 1159 2969 
z
" transform="scale(0.015625)"/>
       <path id="DejaVuSans-79" d="M 2059 -325 
Q 1816 -950 1584 -1140 
Q 1353 -1331 966 -1331 
L 506 -1331 
L 506 -850 
L 844 -850 
Q 1081 -850 1212 -737 
Q 1344 -625 1503 -206 
L 1606 56 
L 191 3500 
L 800 3500 
L 1894 763 
L 2988 3500 
L 3597 3500 
L 2059 -325 
z
" transform="scale(0.015625)"/>
      </defs>
      <use xlink:href="#DejaVuSans-50"/>
      <use xlink:href="#DejaVuSans-6f" x="56.677734"/>
      <use xlink:href="#DejaVuSans-73" x="117.859375"/>
      <use xlink:href="#DejaVuSans-74" x="169.958984"/>
      <use xlink:href="#DejaVuSans-65" x="209.167969"/>
      <use xlink:href="#DejaVuSans-72" x="270.691406"/>
      <use xlink:href="#DejaVuSans-69" x="311.804688"/>
      <use xlink:href="#DejaVuSans-6f" x="339.587891"/>
      <use xlink:href="#DejaVuSans-72" x="400.769531"/>
      <use xlink:href="#DejaVuSans-20" x="441.882812"/>
      <use xlink:href="#DejaVuSans-70" x="473.669922"/>
      <use xlink:href="#DejaVuSans-72" x="537.146484"/>
      <use xlink:href="#DejaVuSans-6f" x="576.009766"/>
      <use xlink:href="#DejaVuSans-62" x="637.191406"/>
      <use xlink:href="#DejaVuSans-61" x="700.667969"/>
      <use xlink:href="#DejaVuSans-62" x="761.947266"/>
      <use xlink:href="#DejaVuSans-69" x="825.423828"/>
      <use xlink:href="#DejaVuSans-6c" x="853.207031"/>
      <use xlink:href="#DejaVuSans-69" x="880.990234"/>
      <use xlink:href="#DejaVuSans-74" x="908.773438"/>
      <use xlink:href="#DejaVuSans-79" x="947.982422"/>
     </g>
    </g>
   </g>
   <g id="line2d_5">
    <path d="M -1 235.73851 
L 6.595874 235.227217 
L 12.762873 234.62638 
L 18.929871 233.814643 
L 25.096869 232.740957 
L 29.208202 231.850968 
L 33.319534 230.799798 
L 37.430866 229.567954 
L 41.542198 228.135823 
L 45.653531 226.484191 
L 49.764863 224.594581 
L 53.876195 222.449206 
L 57.987527 220.030409 
L 62.09886 217.319559 
L 66.210192 214.295576 
L 70.321524 210.933475 
L 74.432857 207.203512 
L 78.544189 203.071476 
L 82.655521 198.500269 
L 86.766853 193.452212 
L 90.878186 187.890861 
L 94.989518 181.781375 
L 99.10085 175.090142 
L 103.212182 167.786636 
L 107.323515 159.850851 
L 111.434847 151.285865 
L 115.546179 142.128844 
L 119.657511 132.451063 
L 125.82451 117.160231 
L 134.047174 95.85813 
L 140.214173 79.857201 
L 144.325505 69.668344 
L 148.436837 60.222966 
L 152.548169 51.718527 
L 156.659502 44.184493 
L 158.715168 40.762317 
L 160.770834 37.563147 
L 162.8265 34.592125 
L 164.882166 31.86496 
L 166.937832 29.406691 
L 168.993498 27.248432 
L 171.049164 25.423287 
L 173.104831 23.962611 
L 175.160497 22.893229 
L 177.216163 22.235533 
L 179.271829 22.001905 
L 181.327495 22.194908 
L 183.383161 22.805236 
L 185.438827 23.810034 
L 187.494494 25.172657 
L 189.55016 26.844746 
L 191.605826 28.770744 
L 195.717158 33.162485 
L 199.82849 37.972152 
L 210.106821 50.329714 
L 214.218153 54.911395 
L 218.329485 59.13771 
L 232.719148 73.337105 
L 238.886147 79.944386 
L 242.997479 84.719218 
L 247.108811 90.008679 
L 251.220143 95.926768 
L 255.331476 102.383869 
L 263.55414 115.623792 
L 267.665472 121.637709 
L 269.721139 124.364469 
L 271.776805 126.879888 
L 273.832471 129.177864 
L 275.888137 131.261224 
L 277.943803 133.140532 
L 279.999469 134.832707 
L 282.055135 136.359539 
L 286.166468 139.019641 
L 290.2778 141.335962 
L 302.611797 147.985133 
L 310.834461 152.859158 
L 317.00146 156.505105 
L 321.112792 158.750113 
L 325.224124 160.749232 
L 329.335456 162.452945 
L 333.446789 163.848372 
L 337.558121 164.956243 
L 341.669453 165.821356 
L 347.836451 166.785524 
L 354.00345 167.497879 
L 362.226114 168.229386 
L 386.894108 170.149325 
L 393.061106 171.007434 
L 397.172438 171.7538 
L 401.283771 172.659771 
L 405.395103 173.737398 
L 409.506435 174.989653 
L 415.673434 177.163345 
L 425.951764 181.2056 
L 432.118763 183.529631 
L 438.285761 185.557159 
L 444.452759 187.252254 
L 452.675424 189.18577 
L 460.898088 191.124423 
L 467.065087 192.761216 
L 475.287751 195.214918 
L 508.178409 205.462226 
L 522.568072 209.576329 
L 532.846403 212.299863 
L 543.124733 214.776986 
L 553.403064 217.002634 
L 563.681395 219.0118 
L 578.071058 221.565233 
L 615.073048 227.958407 
L 635.629709 231.53683 
L 647.963706 233.443761 
L 660.297703 235.098941 
L 672.631699 236.518673 
L 687.021362 237.933666 
L 703.466691 239.301878 
L 721 240.521069 
L 721 240.521069 
" clip-path="url(#p2e19f038db)" style="fill: none; stroke: #000000; stroke-width: 1.5; stroke-linecap: square"/>
   </g>
   <g id="patch_3">
    <path d="M 28.38 246.04 
L 28.38 10.8 
" style="fill: none; stroke: #000000; stroke-width: 0.8; stroke-linejoin: miter; stroke-linecap: square"/>
   </g>
   <g id="patch_4">
    <path d="M 709.2 246.04 
L 709.2 10.8 
" style="fill: none; stroke: #000000; stroke-width: 0.8; stroke-linejoin: miter; stroke-linecap: square"/>
   </g>
   <g id="patch_5">
    <path d="M 28.38 246.04 
L 709.2 246.04 
" style="fill: none; stroke: #000000; stroke-width: 0.8; stroke-linejoin: miter; stroke-linecap: square"/>
   </g>
   <g id="patch_6">
    <path d="M 28.38 10.8 
L 709.2 10.8 
" style="fill: none; stroke: #000000; stroke-width: 0.8; stroke-linejoin: miter; stroke-linecap: square"/>
   </g>
  </g>
 </g>
 <defs>
  <clipPath id="p2e19f038db">
   <rect x="28.38" y="10.8" width="680.82" height="235.24"/>
  </clipPath>
 </defs>
</svg>
